<?xml version="1.0" encoding="ISO-8859-1"?>
<!DOCTYPE svg PUBLIC "-//W3C//DTD SVG 1.0//EN" "http://www.w3.org/TR/2001/REC-SVG-20010904/DTD/svg10.dtd">
<!-- generated by Grace-5.1.25 -->
<svg xml:space="preserve" width="11.0000in" height="8.5000in" viewBox="0.0000 0.0000 792.0000 612.0000">
 <g transform="translate(0,612.0000) scale(1,-1)">
  <g style="fill:#FFFFFF; fill-rule:nonzero">
   <path  d="M0.0000,0.0000L0.0000,612.0000L792.0000,612.0000L792.0000,0.0000z"/>
  </g>
  <g style="fill:none; stroke:#000000; stroke-width:  1.8360; stroke-linecap:butt; stroke-linejoin:miter; stroke-dasharray:none">
   <path d="M91.8000,484.1607L122.4000,468.5105L153.0000,454.8185L183.6000,439.2694L214.2000,424.1268L244.8000,410.0329L275.4000,397.7552L306.0000,384.2610L336.6000,370.8029L367.2000,359.6565
            L397.8000,347.3845L428.4000,335.0191L459.0000,326.5195L489.6000,313.1582L520.2000,302.9207L550.8000,292.4172L581.4000,284.6121L612.0000,273.2163L642.6000,263.7925L673.2000,254.8240
            L703.8000,245.8731"/>
  </g>
  <g style="fill:none; stroke:#000000; stroke-width:  1.8360; stroke-linecap:butt; stroke-linejoin:miter; stroke-dasharray: 9 6">
   <path d="M94.8600,483.0138L122.4000,470.0351L153.0000,454.7637L183.6000,439.6833L214.2000,425.8356L244.8000,411.5103L275.4000,398.3777L306.0000,385.0896L336.6000,372.6008L367.2000,360.3204
            L397.8000,349.2086L428.4000,336.6355L459.0000,325.6568L489.6000,315.1271L520.2000,304.2765L550.8000,293.9235L581.4000,284.1382L612.0000,274.2249L642.6000,265.1868L673.2000,256.3765
            L700.7400,248.2033"/>
  </g>
  <g style="fill:none; stroke:#FF0000; stroke-width:  1.8360; stroke-linecap:butt; stroke-linejoin:miter; stroke-dasharray:none">
   <path d="M91.8000,485.8580L122.4000,468.6267L153.0000,455.9680L183.6000,440.6809L214.2000,427.1567L244.8000,412.5906L275.4000,399.4315L306.0000,387.1542L336.6000,373.6858L367.2000,360.5435
            L397.8000,349.4476L428.4000,338.1852L459.0000,327.9654L489.6000,316.8889L520.2000,306.2765L550.8000,295.8321L581.4000,285.1612L612.0000,275.3753L642.6000,266.6280L673.2000,256.7606
            L703.8000,247.4711"/>
  </g>
  <g style="fill:none; stroke:#FF0000; stroke-width:  1.8360; stroke-linecap:butt; stroke-linejoin:miter; stroke-dasharray: 9 6">
   <path d="M94.8600,485.5014L122.4000,472.1892L153.0000,457.1011L183.6000,442.3728L214.2000,428.6240L244.8000,414.6917L275.4000,400.9906L306.0000,387.8935L336.6000,375.5813L367.2000,362.7020
            L397.8000,350.8003L428.4000,339.6644L459.0000,328.1551L489.6000,317.6396L520.2000,306.8647L550.8000,296.1611L581.4000,286.5835L612.0000,276.6670L642.6000,267.3796L673.2000,258.2411
            L700.7400,249.7531"/>
  </g>
  <g style="fill:none; stroke:#0000FF; stroke-width:  2.7540; stroke-linecap:butt; stroke-linejoin:miter; stroke-dasharray:none">
   <path d="M696.4125,217.3168L705.0675,225.9717"/>
   <path d="M696.4125,225.9717L705.0675,217.3168"/>
  </g>
  <g style="fill:none; stroke:#FFA500; stroke-width:  2.7540; stroke-linecap:butt; stroke-linejoin:miter; stroke-dasharray:none">
   <path d="M696.4125,189.0958L705.0675,197.7508"/>
   <path d="M696.4125,197.7508L705.0675,189.0958"/>
  </g>
  <g style="fill:none; stroke:#00FFFF; stroke-width:  1.8360; stroke-linecap:butt; stroke-linejoin:miter; stroke-dasharray:none">
   <path d="M94.8600,482.6388L122.4000,467.0159L153.0000,449.9774L183.6000,433.8478L214.2000,416.8451L244.8000,401.2065L275.4000,384.8250L306.0000,368.7594L336.6000,353.2013L367.2000,338.2173
            L397.8000,321.8158L428.4000,307.5138L459.0000,293.0722L489.6000,278.1549L520.2000,263.5045L550.8000,248.4220L581.4000,234.5131L612.0000,220.5610L642.6000,205.7678L673.2000,193.2651
            L700.7400,180.1407"/>
  </g>
  <g style="fill:none; stroke:#670748; stroke-width:  0.9180; stroke-linecap:butt; stroke-linejoin:miter; stroke-dasharray:none">
   <ellipse  rx="1.5300" ry="1.5300" cx="94.8600" cy="482.6388"/>
   <ellipse  rx="1.5300" ry="1.5300" cx="122.4000" cy="467.0159"/>
   <ellipse  rx="1.5300" ry="1.5300" cx="153.0000" cy="449.9774"/>
   <ellipse  rx="1.5300" ry="1.5300" cx="183.6000" cy="433.8478"/>
   <ellipse  rx="1.5300" ry="1.5300" cx="214.2000" cy="416.8451"/>
   <ellipse  rx="1.5300" ry="1.5300" cx="244.8000" cy="401.2065"/>
   <ellipse  rx="1.5300" ry="1.5300" cx="275.4000" cy="384.8250"/>
   <ellipse  rx="1.5300" ry="1.5300" cx="306.0000" cy="368.7594"/>
   <ellipse  rx="1.5300" ry="1.5300" cx="336.6000" cy="353.2013"/>
   <ellipse  rx="1.5300" ry="1.5300" cx="367.2000" cy="338.2173"/>
   <ellipse  rx="1.5300" ry="1.5300" cx="397.8000" cy="321.8158"/>
   <ellipse  rx="1.5300" ry="1.5300" cx="428.4000" cy="307.5138"/>
   <ellipse  rx="1.5300" ry="1.5300" cx="459.0000" cy="293.0722"/>
   <ellipse  rx="1.5300" ry="1.5300" cx="489.6000" cy="278.1549"/>
   <ellipse  rx="1.5300" ry="1.5300" cx="520.2000" cy="263.5045"/>
   <ellipse  rx="1.5300" ry="1.5300" cx="550.8000" cy="248.4220"/>
   <ellipse  rx="1.5300" ry="1.5300" cx="581.4000" cy="234.5131"/>
   <ellipse  rx="1.5300" ry="1.5300" cx="612.0000" cy="220.5610"/>
   <ellipse  rx="1.5300" ry="1.5300" cx="642.6000" cy="205.7678"/>
   <ellipse  rx="1.5300" ry="1.5300" cx="673.2000" cy="193.2651"/>
   <ellipse  rx="1.5300" ry="1.5300" cx="700.7400" cy="180.1407"/>
  </g>
  <g style="fill:none; stroke:#008B00; stroke-width:  1.8360; stroke-linecap:butt; stroke-linejoin:miter; stroke-dasharray:none">
   <path d="M94.8600,479.0697L122.4000,464.1560L153.0000,447.2681L183.6000,430.5347L214.2000,414.1992L244.8000,398.8837L275.4000,382.7545L306.0000,366.3341L336.6000,351.5020L367.2000,335.8375
            L397.8000,320.4007L428.4000,305.6329L459.0000,290.8945L489.6000,276.0090L520.2000,261.4353L550.8000,247.4026L581.4000,233.3075L612.0000,219.0798L642.6000,204.9699L673.2000,191.6722
            L700.7400,179.5617"/>
  </g>
  <g style="fill:none; stroke:#008B00; stroke-width:  0.9180; stroke-linecap:butt; stroke-linejoin:miter; stroke-dasharray:none">
   <path d="M93.5595,477.7692L93.5595,480.3702L96.1605,480.3702L96.1605,477.7692z"/>
   <path d="M121.0995,462.8555L121.0995,465.4565L123.7005,465.4565L123.7005,462.8555z"/>
   <path d="M151.6995,445.9676L151.6995,448.5686L154.3005,448.5686L154.3005,445.9676z"/>
   <path d="M182.2995,429.2342L182.2995,431.8352L184.9005,431.8352L184.9005,429.2342z"/>
   <path d="M212.8995,412.8987L212.8995,415.4997L215.5005,415.4997L215.5005,412.8987z"/>
   <path d="M243.4995,397.5832L243.4995,400.1842L246.1005,400.1842L246.1005,397.5832z"/>
   <path d="M274.0995,381.4540L274.0995,384.0550L276.7005,384.0550L276.7005,381.4540z"/>
   <path d="M304.6995,365.0336L304.6995,367.6346L307.3005,367.6346L307.3005,365.0336z"/>
   <path d="M335.2995,350.2015L335.2995,352.8025L337.9005,352.8025L337.9005,350.2015z"/>
   <path d="M365.8995,334.5370L365.8995,337.1380L368.5005,337.1380L368.5005,334.5370z"/>
   <path d="M396.4995,319.1002L396.4995,321.7012L399.1005,321.7012L399.1005,319.1002z"/>
   <path d="M427.0995,304.3324L427.0995,306.9334L429.7005,306.9334L429.7005,304.3324z"/>
   <path d="M457.6995,289.5940L457.6995,292.1950L460.3005,292.1950L460.3005,289.5940z"/>
   <path d="M488.2995,274.7085L488.2995,277.3095L490.9005,277.3095L490.9005,274.7085z"/>
   <path d="M518.8995,260.1348L518.8995,262.7358L521.5005,262.7358L521.5005,260.1348z"/>
   <path d="M549.4995,246.1021L549.4995,248.7031L552.1005,248.7031L552.1005,246.1021z"/>
   <path d="M580.0995,232.0070L580.0995,234.6080L582.7005,234.6080L582.7005,232.0070z"/>
   <path d="M610.6995,217.7793L610.6995,220.3803L613.3005,220.3803L613.3005,217.7793z"/>
   <path d="M641.2995,203.6694L641.2995,206.2704L643.9005,206.2704L643.9005,203.6694z"/>
   <path d="M671.8995,190.3717L671.8995,192.9727L674.5005,192.9727L674.5005,190.3717z"/>
   <path d="M699.4395,178.2612L699.4395,180.8622L702.0405,180.8622L702.0405,178.2612z"/>
  </g>
  <g style="fill:none; stroke:#008B00; stroke-width:  2.7540; stroke-linecap:butt; stroke-linejoin:miter; stroke-dasharray:none">
   <path d="M696.4125,168.0924L705.0675,176.7474"/>
   <path d="M696.4125,176.7474L705.0675,168.0924"/>
  </g>
  <g style="fill:none; stroke:#9400D3; stroke-width:  1.8360; stroke-linecap:butt; stroke-linejoin:miter; stroke-dasharray: 9 6">
   <path d="M91.8000,487.9618L703.8000,161.7697"/>
  </g>
  <g style="fill:none; stroke:#9400D3; stroke-width:  2.7540; stroke-linecap:butt; stroke-linejoin:miter; stroke-dasharray:none">
   <path d="M87.4725,483.6343L96.1275,492.2893"/>
   <path d="M87.4725,492.2893L96.1275,483.6343"/>
   <path d="M699.4725,157.4422L708.1275,166.0972"/>
   <path d="M699.4725,166.0972L708.1275,157.4422"/>
  </g>
  <g style="fill:none; stroke:#000000; stroke-width:  0.9180; stroke-linecap:butt; stroke-linejoin:miter; stroke-dasharray:none">
   <path d="M91.8000,91.8000L703.8000,91.8000"/>
   <path d="M91.8000,520.2000L703.8000,520.2000"/>
   <path d="M153.0000,91.8000L153.0000,94.8600"/>
   <path d="M153.0000,520.2000L153.0000,517.1400"/>
   <path d="M275.4000,91.8000L275.4000,94.8600"/>
   <path d="M275.4000,520.2000L275.4000,517.1400"/>
   <path d="M397.8000,91.8000L397.8000,94.8600"/>
   <path d="M397.8000,520.2000L397.8000,517.1400"/>
   <path d="M520.2000,91.8000L520.2000,94.8600"/>
   <path d="M520.2000,520.2000L520.2000,517.1400"/>
   <path d="M642.6000,91.8000L642.6000,94.8600"/>
   <path d="M642.6000,520.2000L642.6000,517.1400"/>
   <path d="M91.8000,91.8000L91.8000,97.9200"/>
   <path d="M91.8000,520.2000L91.8000,514.0800"/>
   <path d="M214.2000,91.8000L214.2000,97.9200"/>
   <path d="M214.2000,520.2000L214.2000,514.0800"/>
   <path d="M336.6000,91.8000L336.6000,97.9200"/>
   <path d="M336.6000,520.2000L336.6000,514.0800"/>
   <path d="M459.0000,91.8000L459.0000,97.9200"/>
   <path d="M459.0000,520.2000L459.0000,514.0800"/>
   <path d="M581.4000,91.8000L581.4000,97.9200"/>
   <path d="M581.4000,520.2000L581.4000,514.0800"/>
   <path d="M703.8000,91.8000L703.8000,97.9200"/>
   <path d="M703.8000,520.2000L703.8000,514.0800"/>
  </g>
  <g style="fill:#000000; fill-rule:nonzero">
   <text   style="font-family:'Helvetica','Nimbus Sans L'; font-style:normal; font-weight:bold; font-size:612.0000" transform="matrix(0.0280,0.0000,-0.0000,-0.0280,80.3000,73.6800)">0.0</text>
   <text   style="font-family:'Helvetica','Nimbus Sans L'; font-style:normal; font-weight:bold; font-size:612.0000" transform="matrix(0.0280,0.0000,-0.0000,-0.0280,202.7000,73.6800)">0.2</text>
   <text   style="font-family:'Helvetica','Nimbus Sans L'; font-style:normal; font-weight:bold; font-size:612.0000" transform="matrix(0.0280,0.0000,-0.0000,-0.0280,325.1000,73.6800)">0.4</text>
   <text   style="font-family:'Helvetica','Nimbus Sans L'; font-style:normal; font-weight:bold; font-size:612.0000" transform="matrix(0.0280,0.0000,-0.0000,-0.0280,447.5000,73.6800)">0.6</text>
   <text   style="font-family:'Helvetica','Nimbus Sans L'; font-style:normal; font-weight:bold; font-size:612.0000" transform="matrix(0.0280,0.0000,-0.0000,-0.0280,569.9000,73.6800)">0.8</text>
   <text   style="font-family:'Helvetica','Nimbus Sans L'; font-style:normal; font-weight:bold; font-size:612.0000" transform="matrix(0.0280,0.0000,-0.0000,-0.0280,692.3000,73.6800)">1.0</text>
   <text   style="font-family:'Symbol','Standard Symbols L'; font-style:normal; font-weight:normal; font-size:612.0000" transform="matrix(0.0308,0.0000,-0.0000,-0.0308,392.3000,53.5600)">l</text>
  </g>
  <g style="fill:none; stroke:#000000; stroke-width:  0.9180; stroke-linecap:butt; stroke-linejoin:miter; stroke-dasharray:none">
   <path d="M91.8000,91.8000L91.8000,520.2000"/>
   <path d="M703.8000,91.8000L703.8000,520.2000"/>
   <path d="M91.8000,163.2000L94.8600,163.2000"/>
   <path d="M703.8000,163.2000L700.7400,163.2000"/>
   <path d="M91.8000,306.0000L94.8600,306.0000"/>
   <path d="M703.8000,306.0000L700.7400,306.0000"/>
   <path d="M91.8000,448.8000L94.8600,448.8000"/>
   <path d="M703.8000,448.8000L700.7400,448.8000"/>
   <path d="M91.8000,91.8000L97.9200,91.8000"/>
   <path d="M703.8000,91.8000L697.6800,91.8000"/>
   <path d="M91.8000,234.6000L97.9200,234.6000"/>
   <path d="M703.8000,234.6000L697.6800,234.6000"/>
   <path d="M91.8000,377.4000L97.9200,377.4000"/>
   <path d="M703.8000,377.4000L697.6800,377.4000"/>
   <path d="M91.8000,520.2000L97.9200,520.2000"/>
   <path d="M703.8000,520.2000L697.6800,520.2000"/>
  </g>
  <g style="fill:#000000; fill-rule:nonzero">
   <text   style="font-family:'Helvetica','Nimbus Sans L'; font-style:normal; font-weight:bold; font-size:612.0000" transform="matrix(0.0280,0.0000,-0.0000,-0.0280,62.6800,85.8000)">1.0</text>
   <text   style="font-family:'Helvetica','Nimbus Sans L'; font-style:normal; font-weight:bold; font-size:612.0000" transform="matrix(0.0280,0.0000,-0.0000,-0.0280,62.6800,228.6000)">1.2</text>
   <text   style="font-family:'Helvetica','Nimbus Sans L'; font-style:normal; font-weight:bold; font-size:612.0000" transform="matrix(0.0280,0.0000,-0.0000,-0.0280,62.6800,371.4000)">1.4</text>
   <text   style="font-family:'Helvetica','Nimbus Sans L'; font-style:normal; font-weight:bold; font-size:612.0000" transform="matrix(0.0280,0.0000,-0.0000,-0.0280,62.6800,514.2000)">1.6</text>
   <text   style="font-family:'Times','Nimbus Roman No9 L'; font-style:normal; font-weight:normal; font-size:612.0000" transform="matrix(0.0000,0.0308,0.0308,-0.0000,52.5600,210.5000)">average C-H distance [Å]</text>
  </g>
  <g style="fill:none; stroke:#000000; stroke-width:  0.9180; stroke-linecap:butt; stroke-linejoin:miter; stroke-dasharray:none">
   <path d="M91.8000,91.8000L91.8000,520.2000L703.8000,520.2000L703.8000,91.8000z"/>
  </g>
  <g style="fill:#FFFFFF; fill-rule:nonzero">
   <path  d="M122.4000,306.0000L122.4000,116.6800L328.9445,116.6800L328.9445,306.0000z"/>
  </g>
  <g style="fill:none; stroke:#FFFFFF; stroke-width:  0.9180; stroke-linecap:butt; stroke-linejoin:miter; stroke-dasharray:none">
   <path d="M122.4000,306.0000L122.4000,116.6800L328.9445,116.6800L328.9445,306.0000z"/>
  </g>
  <g style="fill:#000000; fill-rule:nonzero">
   <text   style="font-family:'Times','Nimbus Roman No9 L'; font-style:normal; font-weight:normal; font-size:612.0000" transform="matrix(0.0252,0.0000,-0.0000,-0.0252,164.8245,288.8800)">sol/vdw</text>
  </g>
  <g style="fill:none; stroke:#000000; stroke-width:  1.8360; stroke-linecap:butt; stroke-linejoin:miter; stroke-dasharray:none">
   <path d="M134.2245,294.3800L152.5845,294.3800"/>
  </g>
  <g style="fill:#000000; fill-rule:nonzero">
   <text   style="font-family:'Times','Nimbus Roman No9 L'; font-style:normal; font-weight:normal; font-size:612.0000" transform="matrix(0.0252,0.0000,-0.0000,-0.0252,164.8245,271.7600)">vac/vdw</text>
  </g>
  <g style="fill:none; stroke:#000000; stroke-width:  1.8360; stroke-linecap:butt; stroke-linejoin:miter; stroke-dasharray: 9 6">
   <path d="M134.2245,277.2600L152.5845,277.2600"/>
  </g>
  <g style="fill:#000000; fill-rule:nonzero">
   <text   style="font-family:'Times','Nimbus Roman No9 L'; font-style:normal; font-weight:normal; font-size:612.0000" transform="matrix(0.0252,0.0000,-0.0000,-0.0252,164.8245,254.6400)">sol-dummy/vdw</text>
  </g>
  <g style="fill:none; stroke:#FF0000; stroke-width:  1.8360; stroke-linecap:butt; stroke-linejoin:miter; stroke-dasharray:none">
   <path d="M134.2245,258.6400L152.5845,258.6400"/>
  </g>
  <g style="fill:#000000; fill-rule:nonzero">
   <text   style="font-family:'Times','Nimbus Roman No9 L'; font-style:normal; font-weight:normal; font-size:612.0000" transform="matrix(0.0252,0.0000,-0.0000,-0.0252,164.8245,234.5200)">vac-dummy/vdw</text>
  </g>
  <g style="fill:none; stroke:#FF0000; stroke-width:  1.8360; stroke-linecap:butt; stroke-linejoin:miter; stroke-dasharray: 9 6">
   <path d="M134.2245,238.5200L152.5845,238.5200"/>
  </g>
  <g style="fill:#000000; fill-rule:nonzero">
   <text   style="font-family:'Times','Nimbus Roman No9 L'; font-style:normal; font-weight:normal; font-size:612.0000" transform="matrix(0.0252,0.0000,-0.0000,-0.0252,164.8245,214.4000)">tert-butane-&gt;methane</text>
  </g>
  <g style="fill:none; stroke:#0000FF; stroke-width:  0.9180; stroke-linecap:butt; stroke-linejoin:miter; stroke-dasharray:none">
   <path d="M134.2245,219.9000L152.5845,219.9000"/>
  </g>
  <g style="fill:none; stroke:#0000FF; stroke-width:  2.7540; stroke-linecap:butt; stroke-linejoin:miter; stroke-dasharray:none">
   <path d="M129.8970,215.5725L138.5520,224.2275"/>
   <path d="M129.8970,224.2275L138.5520,215.5725"/>
   <path d="M148.2570,215.5725L156.9120,224.2275"/>
   <path d="M148.2570,224.2275L156.9120,215.5725"/>
  </g>
  <g style="fill:#000000; fill-rule:nonzero">
   <text   style="font-family:'Times','Nimbus Roman No9 L'; font-style:normal; font-weight:normal; font-size:612.0000" transform="matrix(0.0252,0.0000,-0.0000,-0.0252,164.8245,197.2800)">propane-&gt;methane</text>
  </g>
  <g style="fill:none; stroke:#FFA500; stroke-width:  0.9180; stroke-linecap:butt; stroke-linejoin:miter; stroke-dasharray:none">
   <path d="M134.2245,201.2800L152.5845,201.2800"/>
  </g>
  <g style="fill:none; stroke:#FFA500; stroke-width:  2.7540; stroke-linecap:butt; stroke-linejoin:miter; stroke-dasharray:none">
   <path d="M129.8970,196.9525L138.5520,205.6075"/>
   <path d="M129.8970,205.6075L138.5520,196.9525"/>
   <path d="M148.2570,196.9525L156.9120,205.6075"/>
   <path d="M148.2570,205.6075L156.9120,196.9525"/>
  </g>
  <g style="fill:#000000; fill-rule:nonzero">
   <text   style="font-family:'Times','Nimbus Roman No9 L'; font-style:normal; font-weight:normal; font-size:612.0000" transform="matrix(0.0252,0.0000,-0.0000,-0.0252,164.8245,177.1600)">"neononane"-&gt;methane</text>
  </g>
  <g style="fill:none; stroke:#00FFFF; stroke-width:  1.8360; stroke-linecap:butt; stroke-linejoin:miter; stroke-dasharray:none">
   <path d="M134.2245,182.6600L152.5845,182.6600"/>
  </g>
  <g style="fill:none; stroke:#670748; stroke-width:  0.9180; stroke-linecap:butt; stroke-linejoin:miter; stroke-dasharray:none">
   <ellipse  rx="1.5300" ry="1.5300" cx="134.2245" cy="182.6600"/>
   <ellipse  rx="1.5300" ry="1.5300" cx="152.5845" cy="182.6600"/>
  </g>
  <g style="fill:#000000; fill-rule:nonzero">
   <text   style="font-family:'Times','Nimbus Roman No9 L'; font-style:normal; font-weight:normal; font-size:612.0000" transform="matrix(0.0252,0.0000,-0.0000,-0.0252,164.8245,160.0400)">"neotridecane"-&gt;methane</text>
  </g>
  <g style="fill:none; stroke:#008B00; stroke-width:  1.8360; stroke-linecap:butt; stroke-linejoin:miter; stroke-dasharray:none">
   <path d="M134.2245,165.5400L152.5845,165.5400"/>
  </g>
  <g style="fill:none; stroke:#008B00; stroke-width:  0.9180; stroke-linecap:butt; stroke-linejoin:miter; stroke-dasharray:none">
   <path d="M132.9240,164.2395L132.9240,166.8405L135.5250,166.8405L135.5250,164.2395z"/>
   <path d="M151.2840,164.2395L151.2840,166.8405L153.8850,166.8405L153.8850,164.2395z"/>
  </g>
  <g style="fill:#000000; fill-rule:nonzero">
   <text   style="font-family:'Times','Nimbus Roman No9 L'; font-style:normal; font-weight:normal; font-size:612.0000" transform="matrix(0.0252,0.0000,-0.0000,-0.0252,164.8245,142.9200)">ethane-&gt;methane</text>
  </g>
  <g style="fill:none; stroke:#008B00; stroke-width:  0.9180; stroke-linecap:butt; stroke-linejoin:miter; stroke-dasharray:none">
   <path d="M134.2245,148.4200L152.5845,148.4200"/>
  </g>
  <g style="fill:none; stroke:#008B00; stroke-width:  2.7540; stroke-linecap:butt; stroke-linejoin:miter; stroke-dasharray:none">
   <path d="M129.8970,144.0925L138.5520,152.7475"/>
   <path d="M129.8970,152.7475L138.5520,144.0925"/>
   <path d="M148.2570,144.0925L156.9120,152.7475"/>
   <path d="M148.2570,152.7475L156.9120,144.0925"/>
  </g>
  <g style="fill:#000000; fill-rule:nonzero">
   <text   style="font-family:'Times','Nimbus Roman No9 L'; font-style:normal; font-weight:normal; font-size:612.0000" transform="matrix(0.0252,0.0000,-0.0000,-0.0252,164.8245,125.8000)">end points</text>
  </g>
  <g style="fill:none; stroke:#9400D3; stroke-width:  1.8360; stroke-linecap:butt; stroke-linejoin:miter; stroke-dasharray: 9 6">
   <path d="M134.2245,129.8000L152.5845,129.8000"/>
  </g>
  <g style="fill:none; stroke:#9400D3; stroke-width:  2.7540; stroke-linecap:butt; stroke-linejoin:miter; stroke-dasharray:none">
   <path d="M129.8970,125.4725L138.5520,134.1275"/>
   <path d="M129.8970,134.1275L138.5520,125.4725"/>
   <path d="M148.2570,125.4725L156.9120,134.1275"/>
   <path d="M148.2570,134.1275L156.9120,125.4725"/>
  </g>
 </g>
</svg>
