<?xml version="1.0" encoding="utf-8" standalone="no"?>
<!DOCTYPE svg PUBLIC "-//W3C//DTD SVG 1.1//EN"
  "http://www.w3.org/Graphics/SVG/1.1/DTD/svg11.dtd">
<!-- Created with matplotlib (http://matplotlib.org/) -->
<svg height="504pt" version="1.1" viewBox="0 0 720 504" width="720pt" xmlns="http://www.w3.org/2000/svg" xmlns:xlink="http://www.w3.org/1999/xlink">
 <defs>
  <style type="text/css">
*{stroke-linecap:butt;stroke-linejoin:round;}
  </style>
 </defs>
 <g id="figure_1">
  <g id="patch_1">
   <path d="
M0 504
L720 504
L720 0
L0 0
z
" style="fill:#ffffff;"/>
  </g>
  <g id="axes_1">
   <g id="patch_2">
    <path d="
M90 453.6
L648 453.6
L648 50.4
L90 50.4
z
" style="fill:#ffffff;"/>
   </g>
   <g id="matplotlib.axis_1">
    <g id="xtick_1">
     <g id="line2d_1">
      <path clip-path="url(#pac498d0293)" d="
M152 453.6
L152 50.4" style="fill:none;stroke:#cccccc;stroke-linecap:round;"/>
     </g>
     <g id="line2d_2">
      <defs>
       <path d="
M0 0
L0 0" id="m219da94a98" style="stroke:#262626;"/>
      </defs>
      <g>
       <use style="fill:#262626;stroke:#262626;" x="152.0" xlink:href="#m219da94a98" y="50.4"/>
      </g>
     </g>
     <g id="text_1">
      <!-- A -->
      <defs>
       <path d="
M56.9844 0
L49.125 20.125
L17.7812 20.125
L9.85938 0
L0.203125 0
L28.2656 68.7969
L38.875 68.7969
L66.5 0
z

M37.5 50.0938
Q36.7188 52.0469 36 54.0469
Q35.2969 56.0625 34.7656 57.6875
Q34.2344 59.3281 33.8594 60.4219
Q33.5 61.5312 33.4531 61.7656
Q33.3438 61.5312 33 60.4062
Q32.6719 59.2812 32.1094 57.6094
Q31.5469 55.9531 30.8281 53.9531
Q30.125 51.9531 29.3906 50
L20.6094 27.3906
L46.3438 27.3906
z
" id="LiberationSans-41"/>
      </defs>
      <g style="fill:#262626;" transform="translate(145.3703125 39.25)scale(0.2 -0.2)">
       <use xlink:href="#LiberationSans-41"/>
      </g>
     </g>
    </g>
    <g id="xtick_2">
     <g id="line2d_3">
      <path clip-path="url(#pac498d0293)" d="
M214 453.6
L214 50.4" style="fill:none;stroke:#cccccc;stroke-linecap:round;"/>
     </g>
     <g id="line2d_4">
      <g>
       <use style="fill:#262626;stroke:#262626;" x="214.0" xlink:href="#m219da94a98" y="50.4"/>
      </g>
     </g>
     <g id="text_2">
      <!-- B -->
      <defs>
       <path d="
M61.4219 19.3906
Q61.4219 14.1562 59.375 10.4688
Q57.3281 6.78125 53.8594 4.46875
Q50.3906 2.15625 45.7969 1.07812
Q41.2188 0 36.1406 0
L8.20312 0
L8.20312 68.7969
L33.2031 68.7969
Q38.9219 68.7969 43.4062 67.8438
Q47.9062 66.8906 51.0312 64.8438
Q54.1562 62.7969 55.7812 59.6406
Q57.4219 56.5 57.4219 52.0938
Q57.4219 49.2188 56.6094 46.6719
Q55.8125 44.1406 54.1719 42.0625
Q52.5469 39.9844 50.0781 38.5
Q47.6094 37.0156 44.3438 36.2812
Q48.4844 35.7969 51.6875 34.375
Q54.8906 32.9531 57.0312 30.75
Q59.1875 28.5625 60.2969 25.6562
Q61.4219 22.75 61.4219 19.3906
M48.0469 50.9844
Q48.0469 56.5469 44.2344 58.9375
Q40.4375 61.3281 33.2031 61.3281
L17.5312 61.3281
L17.5312 39.5469
L33.2031 39.5469
Q37.3125 39.5469 40.1406 40.3438
Q42.9688 41.1562 44.7188 42.6406
Q46.4844 44.1406 47.2656 46.2344
Q48.0469 48.3438 48.0469 50.9844
M52 20.125
Q52 23.3906 50.7969 25.6875
Q49.6094 27.9844 47.3594 29.4375
Q45.125 30.9062 41.9688 31.5938
Q38.8125 32.2812 34.9062 32.2812
L17.5312 32.2812
L17.5312 7.46875
L35.6406 7.46875
Q39.2031 7.46875 42.2031 8.04688
Q45.2188 8.64062 47.3906 10.1094
Q49.5625 11.5781 50.7812 14.0156
Q52 16.4531 52 20.125" id="LiberationSans-42"/>
      </defs>
      <g style="fill:#262626;" transform="translate(208.678125 39.25)scale(0.2 -0.2)">
       <use xlink:href="#LiberationSans-42"/>
      </g>
     </g>
    </g>
    <g id="xtick_3">
     <g id="line2d_5">
      <path clip-path="url(#pac498d0293)" d="
M276 453.6
L276 50.4" style="fill:none;stroke:#cccccc;stroke-linecap:round;"/>
     </g>
     <g id="line2d_6">
      <g>
       <use style="fill:#262626;stroke:#262626;" x="276.0" xlink:href="#m219da94a98" y="50.4"/>
      </g>
     </g>
     <g id="text_3">
      <!-- C -->
      <defs>
       <path d="
M38.6719 62.2031
Q32.8125 62.2031 28.2969 60.25
Q23.7812 58.2969 20.7188 54.6875
Q17.6719 51.0781 16.1094 46
Q14.5469 40.9219 14.5469 34.7188
Q14.5469 28.5156 16.2344 23.3594
Q17.9219 18.2188 21.0625 14.5
Q24.2188 10.7969 28.7812 8.73438
Q33.3438 6.6875 39.0625 6.6875
Q43.0625 6.6875 46.3594 7.73438
Q49.6562 8.79688 52.3125 10.6875
Q54.9844 12.5938 57.0781 15.2031
Q59.1875 17.8281 60.7969 21
L68.4062 17.1875
Q66.5469 13.3281 63.8125 10
Q61.0781 6.6875 57.3906 4.25
Q53.7188 1.8125 49.0469 0.40625
Q44.3906 -0.984375 38.625 -0.984375
Q30.2812 -0.984375 24 1.67188
Q17.7188 4.34375 13.5 9.10938
Q9.28125 13.875 7.17188 20.4062
Q5.07812 26.9531 5.07812 34.7188
Q5.07812 42.7812 7.29688 49.2656
Q9.51562 55.7656 13.7812 60.3281
Q18.0625 64.8906 24.3125 67.3594
Q30.5625 69.8281 38.5781 69.8281
Q49.5625 69.8281 56.9375 65.5312
Q64.3125 61.2344 67.7812 52.7812
L58.9375 49.8594
Q57.9531 52.2969 56.2969 54.5156
Q54.6406 56.7344 52.1406 58.4375
Q49.6562 60.1562 46.3125 61.1719
Q42.9688 62.2031 38.6719 62.2031" id="LiberationSans-43"/>
      </defs>
      <g style="fill:#262626;" transform="translate(269.6671875 39.25)scale(0.2 -0.2)">
       <use xlink:href="#LiberationSans-43"/>
      </g>
     </g>
    </g>
    <g id="xtick_4">
     <g id="line2d_7">
      <path clip-path="url(#pac498d0293)" d="
M338 453.6
L338 50.4" style="fill:none;stroke:#cccccc;stroke-linecap:round;"/>
     </g>
     <g id="line2d_8">
      <g>
       <use style="fill:#262626;stroke:#262626;" x="338.0" xlink:href="#m219da94a98" y="50.4"/>
      </g>
     </g>
     <g id="text_4">
      <!-- D -->
      <defs>
       <path d="
M67.4375 35.1094
Q67.4375 26.5156 64.8438 19.9375
Q62.25 13.375 57.75 8.95312
Q53.2656 4.54688 47.1406 2.26562
Q41.0156 0 33.9375 0
L8.20312 0
L8.20312 68.7969
L30.9531 68.7969
Q38.9219 68.7969 45.625 66.8125
Q52.3438 64.8438 57.1719 60.7188
Q62.0156 56.5938 64.7188 50.2344
Q67.4375 43.8906 67.4375 35.1094
M58.0625 35.1094
Q58.0625 42.0938 56.0469 47.0469
Q54.0469 52 50.4375 55.1719
Q46.8281 58.3438 41.7969 59.8281
Q36.7656 61.3281 30.7656 61.3281
L17.5312 61.3281
L17.5312 7.46875
L32.8594 7.46875
Q38.2812 7.46875 42.8906 9.21875
Q47.5156 10.9844 50.875 14.4531
Q54.25 17.9219 56.1562 23.0938
Q58.0625 28.2656 58.0625 35.1094" id="LiberationSans-44"/>
      </defs>
      <g style="fill:#262626;" transform="translate(332.0765625 39.25)scale(0.2 -0.2)">
       <use xlink:href="#LiberationSans-44"/>
      </g>
     </g>
    </g>
    <g id="xtick_5">
     <g id="line2d_9">
      <path clip-path="url(#pac498d0293)" d="
M400 453.6
L400 50.4" style="fill:none;stroke:#cccccc;stroke-linecap:round;"/>
     </g>
     <g id="line2d_10">
      <g>
       <use style="fill:#262626;stroke:#262626;" x="400.0" xlink:href="#m219da94a98" y="50.4"/>
      </g>
     </g>
     <g id="text_5">
      <!-- E -->
      <defs>
       <path d="
M8.20312 0
L8.20312 68.7969
L60.4062 68.7969
L60.4062 61.1875
L17.5312 61.1875
L17.5312 39.1094
L57.4688 39.1094
L57.4688 31.5938
L17.5312 31.5938
L17.5312 7.625
L62.4062 7.625
L62.4062 0
z
" id="LiberationSans-45"/>
      </defs>
      <g style="fill:#262626;" transform="translate(394.5796875 39.25)scale(0.2 -0.2)">
       <use xlink:href="#LiberationSans-45"/>
      </g>
     </g>
    </g>
    <g id="xtick_6">
     <g id="line2d_11">
      <path clip-path="url(#pac498d0293)" d="
M462 453.6
L462 50.4" style="fill:none;stroke:#cccccc;stroke-linecap:round;"/>
     </g>
     <g id="line2d_12">
      <g>
       <use style="fill:#262626;stroke:#262626;" x="462.0" xlink:href="#m219da94a98" y="50.4"/>
      </g>
     </g>
     <g id="text_6">
      <!-- F -->
      <defs>
       <path d="
M17.5312 61.1875
L17.5312 35.5938
L55.9062 35.5938
L55.9062 27.875
L17.5312 27.875
L17.5312 0
L8.20312 0
L8.20312 68.7969
L57.0781 68.7969
L57.0781 61.1875
z
" id="LiberationSans-46"/>
      </defs>
      <g style="fill:#262626;" transform="translate(457.1125 39.25)scale(0.2 -0.2)">
       <use xlink:href="#LiberationSans-46"/>
      </g>
     </g>
    </g>
    <g id="xtick_7">
     <g id="line2d_13">
      <path clip-path="url(#pac498d0293)" d="
M524 453.6
L524 50.4" style="fill:none;stroke:#cccccc;stroke-linecap:round;"/>
     </g>
     <g id="line2d_14">
      <g>
       <use style="fill:#262626;stroke:#262626;" x="524.0" xlink:href="#m219da94a98" y="50.4"/>
      </g>
     </g>
     <g id="text_7">
      <!-- G -->
      <defs>
       <path d="
M5.03125 34.7188
Q5.03125 42.7812 7.20312 49.2656
Q9.375 55.7656 13.6875 60.3281
Q18.0156 64.8906 24.4062 67.3594
Q30.8125 69.8281 39.2656 69.8281
Q45.6094 69.8281 50.3906 68.7031
Q55.1719 67.5781 58.6875 65.4688
Q62.2031 63.375 64.6406 60.375
Q67.0938 57.375 68.7969 53.6094
L59.9062 50.9844
Q58.6406 53.5156 56.8594 55.5938
Q55.0781 57.6719 52.5312 59.125
Q50 60.5938 46.6562 61.3906
Q43.3125 62.2031 39.0156 62.2031
Q32.7656 62.2031 28.1406 60.25
Q23.5312 58.2969 20.5 54.6875
Q17.4844 51.0781 15.9844 46
Q14.5 40.9219 14.5 34.7188
Q14.5 28.5156 16.1094 23.3594
Q17.7188 18.2188 20.8906 14.4844
Q24.0781 10.75 28.7812 8.67188
Q33.5 6.59375 39.7031 6.59375
Q43.75 6.59375 47.1719 7.26562
Q50.5938 7.95312 53.3438 9.04688
Q56.1094 10.1562 58.2031 11.5
Q60.2969 12.8438 61.7188 14.2031
L61.7188 26.6094
L41.1562 26.6094
L41.1562 34.4219
L70.3125 34.4219
L70.3125 10.6875
Q68.0156 8.34375 64.9062 6.21875
Q61.8125 4.10938 57.9531 2.48438
Q54.1094 0.875 49.5156 -0.046875
Q44.9219 -0.984375 39.7031 -0.984375
Q31 -0.984375 24.5 1.67188
Q18.0156 4.34375 13.6875 9.10938
Q9.375 13.875 7.20312 20.4062
Q5.03125 26.9531 5.03125 34.7188" id="LiberationSans-47"/>
      </defs>
      <g style="fill:#262626;" transform="translate(517.471875 39.25)scale(0.2 -0.2)">
       <use xlink:href="#LiberationSans-47"/>
      </g>
     </g>
    </g>
    <g id="xtick_8">
     <g id="line2d_15">
      <path clip-path="url(#pac498d0293)" d="
M586 453.6
L586 50.4" style="fill:none;stroke:#cccccc;stroke-linecap:round;"/>
     </g>
     <g id="line2d_16">
      <g>
       <use style="fill:#262626;stroke:#262626;" x="586.0" xlink:href="#m219da94a98" y="50.4"/>
      </g>
     </g>
     <g id="text_8">
      <!-- H -->
      <defs>
       <path d="
M54.7344 0
L54.7344 31.8906
L17.5312 31.8906
L17.5312 0
L8.20312 0
L8.20312 68.7969
L17.5312 68.7969
L17.5312 39.7031
L54.7344 39.7031
L54.7344 68.7969
L64.0625 68.7969
L64.0625 0
z
" id="LiberationSans-48"/>
      </defs>
      <g style="fill:#262626;" transform="translate(580.4140625 39.25)scale(0.2 -0.2)">
       <use xlink:href="#LiberationSans-48"/>
      </g>
     </g>
    </g>
   </g>
   <g id="matplotlib.axis_2">
    <g id="ytick_1">
     <g id="line2d_17">
      <path clip-path="url(#pac498d0293)" d="
M90 453.6
L648 453.6" style="fill:none;stroke:#cccccc;stroke-linecap:round;"/>
     </g>
     <g id="line2d_18">
      <g>
       <use style="fill:#262626;stroke:#262626;" x="90.0" xlink:href="#m219da94a98" y="453.6"/>
      </g>
     </g>
     <g id="line2d_19">
      <g>
       <use style="fill:#262626;stroke:#262626;" x="648.0" xlink:href="#m219da94a98" y="453.6"/>
      </g>
     </g>
     <g id="text_9">
      <!-- −10 -->
      <defs>
       <path d="
M4.9375 29.6875
L4.9375 36.8125
L53.5156 36.8125
L53.5156 29.6875
z
" id="LiberationSans-2212"/>
       <path d="
M7.625 0
L7.625 7.46875
L25.1406 7.46875
L25.1406 60.4062
L9.625 49.3125
L9.625 57.625
L25.875 68.7969
L33.9844 68.7969
L33.9844 7.46875
L50.7344 7.46875
L50.7344 0
z
" id="LiberationSans-31"/>
       <path d="
M51.7031 34.4219
Q51.7031 24.5156 49.8281 17.75
Q47.9531 10.9844 44.7031 6.8125
Q41.4531 2.64062 37.0625 0.828125
Q32.6719 -0.984375 27.6875 -0.984375
Q22.6562 -0.984375 18.3125 0.828125
Q13.9688 2.64062 10.7656 6.78125
Q7.5625 10.9375 5.73438 17.7031
Q3.90625 24.4688 3.90625 34.4219
Q3.90625 44.8281 5.73438 51.6406
Q7.5625 58.4531 10.7812 62.5
Q14.0156 66.5469 18.4062 68.1875
Q22.7969 69.8281 27.9844 69.8281
Q32.9062 69.8281 37.2188 68.1875
Q41.5469 66.5469 44.7656 62.5
Q48 58.4531 49.8438 51.6406
Q51.7031 44.8281 51.7031 34.4219
M42.7812 34.4219
Q42.7812 42.625 41.7969 48.0625
Q40.8281 53.5156 38.9219 56.7656
Q37.0156 60.0156 34.25 61.3594
Q31.5 62.7031 27.9844 62.7031
Q24.2656 62.7031 21.4375 61.3281
Q18.6094 59.9688 16.6719 56.7188
Q14.75 53.4688 13.7656 48.0156
Q12.7969 42.5781 12.7969 34.4219
Q12.7969 26.5156 13.7969 21.0938
Q14.7969 15.6719 16.7188 12.375
Q18.6562 9.07812 21.4375 7.64062
Q24.2188 6.20312 27.7812 6.20312
Q31.25 6.20312 34.0312 7.64062
Q36.8125 9.07812 38.7344 12.375
Q40.6719 15.6719 41.7188 21.0938
Q42.7812 26.5156 42.7812 34.4219" id="LiberationSans-30"/>
      </defs>
      <g style="fill:#262626;" transform="translate(58.8828125 457.47890625)scale(0.15 -0.15)">
       <use xlink:href="#LiberationSans-2212"/>
       <use x="58.3984375" xlink:href="#LiberationSans-31"/>
       <use x="114.013671875" xlink:href="#LiberationSans-30"/>
      </g>
     </g>
    </g>
    <g id="ytick_2">
     <g id="line2d_20">
      <path clip-path="url(#pac498d0293)" d="
M90 386.4
L648 386.4" style="fill:none;stroke:#cccccc;stroke-linecap:round;"/>
     </g>
     <g id="line2d_21">
      <g>
       <use style="fill:#262626;stroke:#262626;" x="90.0" xlink:href="#m219da94a98" y="386.4"/>
      </g>
     </g>
     <g id="line2d_22">
      <g>
       <use style="fill:#262626;stroke:#262626;" x="648.0" xlink:href="#m219da94a98" y="386.4"/>
      </g>
     </g>
     <g id="text_10">
      <!-- −8 -->
      <defs>
       <path d="
M51.2656 19.1875
Q51.2656 14.7969 49.875 11.1094
Q48.4844 7.42188 45.625 4.73438
Q42.7812 2.04688 38.3281 0.53125
Q33.8906 -0.984375 27.8281 -0.984375
Q21.7812 -0.984375 17.3594 0.53125
Q12.9375 2.04688 10.0312 4.70312
Q7.125 7.375 5.73438 11.0625
Q4.34375 14.75 4.34375 19.0938
Q4.34375 22.8594 5.48438 25.7812
Q6.64062 28.7188 8.5625 30.8281
Q10.5 32.9531 12.9688 34.25
Q15.4375 35.5469 18.0625 35.9844
L18.0625 36.1875
Q15.1875 36.8594 12.9062 38.375
Q10.6406 39.8906 9.09375 42.0156
Q7.5625 44.1406 6.75 46.7188
Q5.95312 49.3125 5.95312 52.2031
Q5.95312 55.8125 7.34375 59
Q8.73438 62.2031 11.4688 64.625
Q14.2031 67.0469 18.25 68.4375
Q22.3125 69.8281 27.6406 69.8281
Q33.25 69.8281 37.375 68.4062
Q41.5 67 44.2031 64.5781
Q46.9219 62.1562 48.2344 58.9375
Q49.5625 55.7188 49.5625 52.0938
Q49.5625 49.2656 48.75 46.6719
Q47.9531 44.0938 46.4062 41.9688
Q44.875 39.8438 42.5938 38.3438
Q40.3281 36.8594 37.3594 36.2812
L37.3594 36.0781
Q40.3281 35.5938 42.8594 34.2969
Q45.4062 33.0156 47.2656 30.8906
Q49.125 28.7656 50.1875 25.8281
Q51.2656 22.9062 51.2656 19.1875
M40.4375 51.6094
Q40.4375 54.2031 39.7656 56.3438
Q39.1094 58.5 37.5938 60.0312
Q36.0781 61.5781 33.6406 62.4219
Q31.2031 63.2812 27.6406 63.2812
Q24.1719 63.2812 21.7812 62.4219
Q19.3906 61.5781 17.8438 60.0312
Q16.3125 58.5 15.625 56.3438
Q14.9375 54.2031 14.9375 51.6094
Q14.9375 49.5625 15.4688 47.4062
Q16.0156 45.2656 17.4219 43.5
Q18.8438 41.75 21.3281 40.625
Q23.8281 39.5 27.7344 39.5
Q31.8906 39.5 34.4062 40.625
Q36.9219 41.75 38.25 43.5
Q39.5938 45.2656 40.0156 47.4062
Q40.4375 49.5625 40.4375 51.6094
M42.1406 20.0156
Q42.1406 22.5156 41.4531 24.8281
Q40.7656 27.1562 39.1094 28.9375
Q37.4531 30.7188 34.6406 31.8125
Q31.8438 32.9062 27.6406 32.9062
Q23.7812 32.9062 21.0625 31.8125
Q18.3594 30.7188 16.6719 28.9062
Q14.9844 27.0938 14.2031 24.7188
Q13.4219 22.3594 13.4219 19.8281
Q13.4219 16.6562 14.2031 14.0312
Q14.9844 11.4219 16.6875 9.54688
Q18.4062 7.67188 21.1875 6.64062
Q23.9688 5.60938 27.9375 5.60938
Q31.9375 5.60938 34.6719 6.64062
Q37.4062 7.67188 39.0625 9.54688
Q40.7188 11.4219 41.4219 14.0781
Q42.1406 16.75 42.1406 20.0156" id="LiberationSans-38"/>
      </defs>
      <g style="fill:#262626;" transform="translate(67.28984375 390.27890625)scale(0.15 -0.15)">
       <use xlink:href="#LiberationSans-2212"/>
       <use x="58.3984375" xlink:href="#LiberationSans-38"/>
      </g>
     </g>
    </g>
    <g id="ytick_3">
     <g id="line2d_23">
      <path clip-path="url(#pac498d0293)" d="
M90 319.2
L648 319.2" style="fill:none;stroke:#cccccc;stroke-linecap:round;"/>
     </g>
     <g id="line2d_24">
      <g>
       <use style="fill:#262626;stroke:#262626;" x="90.0" xlink:href="#m219da94a98" y="319.2"/>
      </g>
     </g>
     <g id="line2d_25">
      <g>
       <use style="fill:#262626;stroke:#262626;" x="648.0" xlink:href="#m219da94a98" y="319.2"/>
      </g>
     </g>
     <g id="text_11">
      <!-- −6 -->
      <defs>
       <path d="
M51.2188 22.5156
Q51.2188 17.3281 49.7812 13
Q48.3438 8.6875 45.5312 5.57812
Q42.7188 2.48438 38.5625 0.75
Q34.4219 -0.984375 29 -0.984375
Q23 -0.984375 18.5 1.3125
Q14.0156 3.60938 11.0312 7.92188
Q8.0625 12.25 6.5625 18.5312
Q5.07812 24.8125 5.07812 32.8125
Q5.07812 42 6.76562 48.9219
Q8.45312 55.8594 11.625 60.5
Q14.7969 65.1406 19.3594 67.4844
Q23.9219 69.8281 29.6875 69.8281
Q33.2031 69.8281 36.2812 69.0938
Q39.3594 68.3594 41.875 66.7188
Q44.3906 65.0938 46.2812 62.4062
Q48.1875 59.7188 49.3125 55.8125
L40.9219 54.2969
Q39.5469 58.7344 36.5469 60.7188
Q33.5469 62.7031 29.5938 62.7031
Q25.9844 62.7031 23.0469 60.9844
Q20.125 59.2812 18.0625 55.875
Q16.0156 52.4844 14.9062 47.3594
Q13.8125 42.2344 13.8125 35.4062
Q16.2188 39.8438 20.5625 42.1562
Q24.9062 44.4844 30.5156 44.4844
Q35.2031 44.4844 39.0156 42.9688
Q42.8281 41.4531 45.5312 38.5938
Q48.25 35.75 49.7344 31.6719
Q51.2188 27.5938 51.2188 22.5156
M42.2812 22.125
Q42.2812 25.6875 41.4062 28.5625
Q40.5312 31.4531 38.7656 33.4688
Q37.0156 35.5 34.4219 36.5938
Q31.8438 37.7031 28.4219 37.7031
Q26.0312 37.7031 23.5781 36.9844
Q21.1406 36.2812 19.1562 34.6875
Q17.1875 33.1094 15.9375 30.5156
Q14.7031 27.9375 14.7031 24.2188
Q14.7031 20.4062 15.6719 17.1094
Q16.6562 13.8125 18.4844 11.375
Q20.3125 8.9375 22.8906 7.51562
Q25.4844 6.10938 28.7188 6.10938
Q31.8906 6.10938 34.4062 7.20312
Q36.9219 8.29688 38.6719 10.375
Q40.4375 12.4531 41.3594 15.4219
Q42.2812 18.4062 42.2812 22.125" id="LiberationSans-36"/>
      </defs>
      <g style="fill:#262626;" transform="translate(67.296875 323.07890625)scale(0.15 -0.15)">
       <use xlink:href="#LiberationSans-2212"/>
       <use x="58.3984375" xlink:href="#LiberationSans-36"/>
      </g>
     </g>
    </g>
    <g id="ytick_4">
     <g id="line2d_26">
      <path clip-path="url(#pac498d0293)" d="
M90 252
L648 252" style="fill:none;stroke:#cccccc;stroke-linecap:round;"/>
     </g>
     <g id="line2d_27">
      <g>
       <use style="fill:#262626;stroke:#262626;" x="90.0" xlink:href="#m219da94a98" y="252.0"/>
      </g>
     </g>
     <g id="line2d_28">
      <g>
       <use style="fill:#262626;stroke:#262626;" x="648.0" xlink:href="#m219da94a98" y="252.0"/>
      </g>
     </g>
     <g id="text_12">
      <!-- −4 -->
      <defs>
       <path d="
M43.0156 15.5781
L43.0156 0
L34.7188 0
L34.7188 15.5781
L2.29688 15.5781
L2.29688 22.4062
L33.7969 68.7969
L43.0156 68.7969
L43.0156 22.5156
L52.6875 22.5156
L52.6875 15.5781
z

M34.7188 58.8906
Q34.625 58.6406 34.2344 57.9375
Q33.8438 57.2344 33.3438 56.3438
Q32.8594 55.4688 32.3438 54.5625
Q31.8438 53.6562 31.4531 53.0781
L13.8125 27.0938
Q13.5781 26.7031 13.1094 26.0625
Q12.6406 25.4375 12.1562 24.7812
Q11.6719 24.125 11.1719 23.4844
Q10.6875 22.8594 10.4062 22.5156
L34.7188 22.5156
z
" id="LiberationSans-34"/>
      </defs>
      <g style="fill:#262626;" transform="translate(67.0765625 255.87890625)scale(0.15 -0.15)">
       <use xlink:href="#LiberationSans-2212"/>
       <use x="58.3984375" xlink:href="#LiberationSans-34"/>
      </g>
     </g>
    </g>
    <g id="ytick_5">
     <g id="line2d_29">
      <path clip-path="url(#pac498d0293)" d="
M90 184.8
L648 184.8" style="fill:none;stroke:#cccccc;stroke-linecap:round;"/>
     </g>
     <g id="line2d_30">
      <g>
       <use style="fill:#262626;stroke:#262626;" x="90.0" xlink:href="#m219da94a98" y="184.8"/>
      </g>
     </g>
     <g id="line2d_31">
      <g>
       <use style="fill:#262626;stroke:#262626;" x="648.0" xlink:href="#m219da94a98" y="184.8"/>
      </g>
     </g>
     <g id="text_13">
      <!-- −2 -->
      <defs>
       <path d="
M5.03125 0
L5.03125 6.20312
Q7.51562 11.9219 11.1094 16.2812
Q14.7031 20.6562 18.6562 24.1875
Q22.6094 27.7344 26.4844 30.7656
Q30.375 33.7969 33.5 36.8125
Q36.625 39.8438 38.5469 43.1562
Q40.4844 46.4844 40.4844 50.6875
Q40.4844 53.6094 39.5938 55.8281
Q38.7188 58.0625 37.0625 59.5625
Q35.4062 61.0781 33.0781 61.8281
Q30.7656 62.5938 27.9375 62.5938
Q25.2969 62.5938 22.9688 61.8594
Q20.6562 61.1406 18.8438 59.6719
Q17.0469 58.2031 15.8906 56.0312
Q14.75 53.8594 14.4062 50.9844
L5.42188 51.8125
Q5.85938 55.5156 7.46875 58.7812
Q9.07812 62.0625 11.9062 64.5312
Q14.75 67 18.7188 68.4062
Q22.7031 69.8281 27.9375 69.8281
Q33.0625 69.8281 37.0625 68.6094
Q41.0625 67.3906 43.8125 64.9844
Q46.5781 62.5938 48.0469 59.0781
Q49.5156 55.5625 49.5156 50.9844
Q49.5156 47.5156 48.2656 44.3906
Q47.0156 41.2656 44.9375 38.4219
Q42.875 35.5938 40.1406 32.9531
Q37.4062 30.3281 34.4219 27.8125
Q31.4531 25.2969 28.4219 22.8281
Q25.3906 20.3594 22.7188 17.8594
Q20.0625 15.375 17.9688 12.8125
Q15.875 10.25 14.7031 7.46875
L50.5938 7.46875
L50.5938 0
z
" id="LiberationSans-32"/>
      </defs>
      <g style="fill:#262626;" transform="translate(67.390625 188.67890625)scale(0.15 -0.15)">
       <use xlink:href="#LiberationSans-2212"/>
       <use x="58.3984375" xlink:href="#LiberationSans-32"/>
      </g>
     </g>
    </g>
    <g id="ytick_6">
     <g id="line2d_32">
      <path clip-path="url(#pac498d0293)" d="
M90 117.6
L648 117.6" style="fill:none;stroke:#cccccc;stroke-linecap:round;"/>
     </g>
     <g id="line2d_33">
      <g>
       <use style="fill:#262626;stroke:#262626;" x="90.0" xlink:href="#m219da94a98" y="117.6"/>
      </g>
     </g>
     <g id="line2d_34">
      <g>
       <use style="fill:#262626;stroke:#262626;" x="648.0" xlink:href="#m219da94a98" y="117.6"/>
      </g>
     </g>
     <g id="text_14">
      <!-- 0 -->
      <g style="fill:#262626;" transform="translate(75.83046875 121.47890625)scale(0.15 -0.15)">
       <use xlink:href="#LiberationSans-30"/>
      </g>
     </g>
    </g>
    <g id="ytick_7">
     <g id="line2d_35">
      <path clip-path="url(#pac498d0293)" d="
M90 50.4
L648 50.4" style="fill:none;stroke:#cccccc;stroke-linecap:round;"/>
     </g>
     <g id="line2d_36">
      <g>
       <use style="fill:#262626;stroke:#262626;" x="90.0" xlink:href="#m219da94a98" y="50.4"/>
      </g>
     </g>
     <g id="line2d_37">
      <g>
       <use style="fill:#262626;stroke:#262626;" x="648.0" xlink:href="#m219da94a98" y="50.4"/>
      </g>
     </g>
     <g id="text_15">
      <!-- 2 -->
      <g style="fill:#262626;" transform="translate(76.165625 54.27890625)scale(0.15 -0.15)">
       <use xlink:href="#LiberationSans-32"/>
      </g>
     </g>
    </g>
    <g id="text_16">
     <!-- $\Delta\Delta G$ / kcal mol$^{-1}$ -->
     <defs>
      <path d="
M37.5 0
L37.5 33.5
Q37.5 37.3594 37.0156 39.9375
Q36.5312 42.5312 35.375 44.1094
Q34.2344 45.7031 32.375 46.3594
Q30.5156 47.0156 27.8281 47.0156
Q25.0469 47.0156 22.7969 45.9219
Q20.5625 44.8281 18.9688 42.75
Q17.3906 40.6719 16.5312 37.625
Q15.6719 34.5781 15.6719 30.6094
L15.6719 0
L6.9375 0
L6.9375 41.5469
Q6.9375 43.2188 6.90625 45.0469
Q6.89062 46.875 6.82812 48.5
Q6.78125 50.1406 6.73438 51.3125
Q6.6875 52.4844 6.64062 52.8281
L14.9375 52.8281
Q14.9844 52.5938 15.0312 51.5156
Q15.0938 50.4375 15.1562 49.0469
Q15.2344 47.6562 15.2812 46.2188
Q15.3281 44.7812 15.3281 43.7969
L15.4844 43.7969
Q16.6562 46.0938 18.0156 47.9531
Q19.3906 49.8125 21.2188 51.0938
Q23.0469 52.3906 25.4062 53.0938
Q27.7812 53.8125 30.9062 53.8125
Q36.9219 53.8125 40.4062 51.4219
Q43.8906 49.0312 45.2656 43.7969
L45.4062 43.7969
Q46.5781 46.0938 48.0469 47.9531
Q49.5156 49.8125 51.4688 51.0938
Q53.4219 52.3906 55.8594 53.0938
Q58.2969 53.8125 61.4219 53.8125
Q65.4375 53.8125 68.3281 52.7344
Q71.2344 51.6562 73.0938 49.4062
Q74.9531 47.1719 75.8281 43.625
Q76.7031 40.0938 76.7031 35.2031
L76.7031 0
L68.0156 0
L68.0156 33.5
Q68.0156 37.3594 67.5312 39.9375
Q67.0469 42.5312 65.8906 44.1094
Q64.75 45.7031 62.8906 46.3594
Q61.0312 47.0156 58.3438 47.0156
Q55.5625 47.0156 53.3125 45.9688
Q51.0781 44.9219 49.4844 42.875
Q47.9062 40.8281 47.0469 37.75
Q46.1875 34.6719 46.1875 30.6094
L46.1875 0
z
" id="LiberationSans-6d"/>
      <path d="
M9.28125 0
L9.28125 3.51562
Q21.7812 3.51562 21.7812 6.6875
L21.7812 59.1875
Q16.6094 56.6875 8.6875 56.6875
L8.6875 60.2031
Q20.9531 60.2031 27.2031 66.6094
L28.6094 66.6094
Q28.9531 66.6094 29.2656 66.3281
Q29.5938 66.0625 29.5938 65.7188
L29.5938 6.6875
Q29.5938 3.51562 42.0938 3.51562
L42.0938 0
z
" id="Cmr10-31"/>
      <path d="
M10.2031 23
Q9.375 23 8.82812 23.625
Q8.29688 24.2656 8.29688 25
Q8.29688 25.7344 8.82812 26.3594
Q9.375 27 10.2031 27
L67.5781 27
Q68.3594 27 68.875 26.3594
Q69.3906 25.7344 69.3906 25
Q69.3906 24.2656 68.875 23.625
Q68.3594 23 67.5781 23
z
" id="Cmsy10-a1"/>
      <path d="
M20.2188 -0.984375
Q12.25 -0.984375 8.25 3.21875
Q4.25 7.42188 4.25 14.75
Q4.25 19.9688 6.21875 23.3125
Q8.20312 26.6562 11.3906 28.5625
Q14.5938 30.4688 18.6875 31.2031
Q22.7969 31.9375 27.0469 32.0312
L38.9219 32.2344
L38.9219 35.1094
Q38.9219 38.375 38.2344 40.6719
Q37.5469 42.9688 36.125 44.375
Q34.7188 45.7969 32.5938 46.4531
Q30.4688 47.125 27.5938 47.125
Q25.0469 47.125 23 46.75
Q20.9531 46.3906 19.4375 45.4375
Q17.9219 44.4844 16.9844 42.8438
Q16.0625 41.2188 15.7656 38.7188
L6.59375 39.5469
Q7.07812 42.6719 8.4375 45.2812
Q9.8125 47.9062 12.3281 49.7969
Q14.8438 51.7031 18.625 52.75
Q22.4062 53.8125 27.7812 53.8125
Q37.75 53.8125 42.7656 49.2344
Q47.7969 44.6719 47.7969 36.0312
L47.7969 13.2812
Q47.7969 9.375 48.8281 7.39062
Q49.8594 5.42188 52.7344 5.42188
Q53.4688 5.42188 54.2031 5.51562
Q54.9375 5.60938 55.6094 5.76562
L55.6094 0.296875
Q53.9531 -0.09375 52.3125 -0.28125
Q50.6875 -0.484375 48.8281 -0.484375
Q46.3438 -0.484375 44.5625 0.171875
Q42.7812 0.828125 41.6562 2.17188
Q40.5312 3.51562 39.9375 5.48438
Q39.3594 7.46875 39.2031 10.1094
L38.9219 10.1094
Q37.5 7.5625 35.8125 5.51562
Q34.125 3.46875 31.875 2.03125
Q29.6406 0.59375 26.7812 -0.1875
Q23.9219 -0.984375 20.2188 -0.984375
M22.2188 5.60938
Q26.4219 5.60938 29.5625 7.14062
Q32.7188 8.6875 34.7812 11.0781
Q36.8594 13.4844 37.8906 16.3125
Q38.9219 19.1406 38.9219 21.7344
L38.9219 26.0781
L29.2969 25.875
Q26.0781 25.8281 23.1719 25.4062
Q20.2656 25 18.0625 23.7812
Q15.875 22.5625 14.5781 20.3594
Q13.2812 18.1719 13.2812 14.5938
Q13.2812 10.2969 15.5938 7.95312
Q17.9219 5.60938 22.2188 5.60938" id="LiberationSans-61"/>
      <path d="
M13.4219 26.6562
Q13.4219 22.125 14.0781 18.3125
Q14.75 14.5 16.3125 11.7344
Q17.875 8.98438 20.4375 7.46875
Q23 5.95312 26.7656 5.95312
Q31.4531 5.95312 34.5938 8.48438
Q37.75 11.0312 38.4844 16.3125
L47.3594 15.7188
Q46.9219 12.4531 45.4531 9.42188
Q44 6.39062 41.4844 4.09375
Q38.9688 1.8125 35.3438 0.40625
Q31.7344 -0.984375 27 -0.984375
Q20.7969 -0.984375 16.4531 1.10938
Q12.1094 3.21875 9.39062 6.90625
Q6.6875 10.5938 5.46875 15.5938
Q4.25 20.6094 4.25 26.4688
Q4.25 31.7812 5.125 35.8594
Q6 39.9375 7.59375 42.9844
Q9.1875 46.0469 11.3281 48.125
Q13.4844 50.2031 15.9844 51.4375
Q18.5 52.6875 21.2812 53.25
Q24.0781 53.8125 26.9062 53.8125
Q31.3438 53.8125 34.8125 52.5938
Q38.2812 51.375 40.7969 49.25
Q43.3125 47.125 44.875 44.2344
Q46.4375 41.3594 47.0781 38.0312
L38.0312 37.3594
Q37.3594 41.75 34.5625 44.3281
Q31.7812 46.9219 26.6562 46.9219
Q22.9062 46.9219 20.3906 45.6719
Q17.875 44.4375 16.3125 41.9219
Q14.75 39.4062 14.0781 35.5938
Q13.4219 31.7812 13.4219 26.6562" id="LiberationSans-63"/>
      <path d="
M5.42188 0
Q4.59375 0 4.59375 0.78125
Q4.64062 0.875 4.65625 0.921875
Q4.6875 0.984375 4.6875 1.125
L39.1094 70.5156
Q39.5469 71.5781 40.9219 71.5781
L42.2812 71.5781
Q43.6562 71.5781 44.0938 70.5156
L78.5156 1.125
Q78.5625 1.03125 78.5781 0.953125
Q78.6094 0.875 78.6094 0.78125
Q78.6094 0 77.7812 0
z

M12.0156 8.01562
L64.7031 8.01562
L38.375 61.0781
z
" id="Cmr10-a2"/>
      <path d="
M0 -0.984375
L20.0625 72.4688
L27.7812 72.4688
L7.90625 -0.984375
z
" id="LiberationSans-2f"/>
      <path d="
M14.5938 21.9219
Q14.5938 15.7188 17.0625 11.0469
Q19.5312 6.39062 24.1719 3.84375
Q28.8125 1.3125 34.9062 1.3125
Q40.875 1.3125 46.2344 4.125
Q51.6094 6.9375 52.9844 12.2031
L55.1719 20.7969
Q55.2188 21.0938 55.2656 21.4062
Q55.3281 21.7344 55.3281 21.9219
Q55.3281 22.9531 54.6875 23.0938
Q52.2031 23.7812 44.6719 23.7812
Q43.7031 23.7812 43.7031 25.0938
Q44 26.3125 44.2344 26.7969
Q44.4844 27.2969 45.4062 27.2969
L71.1875 27.2969
Q72.2188 27.2969 72.2188 25.9844
Q72.1719 25.7344 72.0156 25.1406
Q71.875 24.5625 71.625 24.1719
Q71.3906 23.7812 70.9062 23.7812
Q67.5781 23.7812 66.0312 23.2344
Q64.5 22.7031 63.9219 20.4062
L61.7188 11.8125
L58.8906 0.6875
Q58.7344 0 58.0156 0
Q57.1719 0 55.6094 2.25
Q54.0469 4.5 53.4219 6
Q49.9531 1.90625 44.1406 -0.140625
Q38.3281 -2.20312 32.1719 -2.20312
Q24.4219 -2.20312 18.1875 1.3125
Q11.9688 4.82812 8.51562 11.0781
Q5.07812 17.3281 5.07812 25.2031
Q5.07812 33.5938 8.8125 41.7656
Q12.5469 49.9531 18.9375 56.4219
Q25.3438 62.8906 33.4688 66.7031
Q41.6094 70.5156 49.9062 70.5156
Q53.2188 70.5156 56.2656 69.4844
Q59.3281 68.4531 61.9375 66.4219
Q64.5469 64.4062 66.2188 61.7188
L74.125 70.3125
Q74.125 70.5156 74.6094 70.5156
L75.2031 70.5156
Q75.5938 70.5156 75.8594 70.1875
Q76.125 69.875 76.125 69.4844
L69.2812 42.4844
Q69.2812 41.7969 68.5 41.7969
L66.7031 41.7969
Q65.9219 41.7969 65.9219 42.9219
Q66.3125 45.125 66.3125 48.0938
Q66.3125 53.0312 64.6406 57.375
Q62.9844 61.7188 59.4688 64.3594
Q55.9531 67 50.875 67
Q42.8281 67 35.9844 62.9219
Q29.1562 58.8438 24.4062 52.1406
Q19.6719 45.4531 17.125 37.4375
Q14.5938 29.4375 14.5938 21.9219" id="Cmmi10-47"/>
      <path d="
M51.4219 26.4688
Q51.4219 12.5938 45.3125 5.79688
Q39.2031 -0.984375 27.5938 -0.984375
Q22.0781 -0.984375 17.7188 0.671875
Q13.375 2.34375 10.375 5.76562
Q7.375 9.1875 5.78125 14.3281
Q4.20312 19.4844 4.20312 26.4688
Q4.20312 53.8125 27.875 53.8125
Q34.0312 53.8125 38.5 52.0938
Q42.9688 50.3906 45.8281 46.9688
Q48.6875 43.5625 50.0469 38.4219
Q51.4219 33.2969 51.4219 26.4688
M42.1875 26.4688
Q42.1875 32.625 41.2344 36.625
Q40.2812 40.625 38.4531 43.0156
Q36.625 45.4062 33.9844 46.3594
Q31.3438 47.3125 28.0312 47.3125
Q24.6562 47.3125 21.9375 46.3125
Q19.2344 45.3125 17.3281 42.8906
Q15.4375 40.4844 14.4219 36.4688
Q13.4219 32.4688 13.4219 26.4688
Q13.4219 20.3125 14.5 16.2812
Q15.5781 12.25 17.4531 9.85938
Q19.3438 7.46875 21.9062 6.48438
Q24.4688 5.51562 27.4844 5.51562
Q30.8594 5.51562 33.5938 6.46875
Q36.3281 7.42188 38.2344 9.8125
Q40.1406 12.2031 41.1562 16.25
Q42.1875 20.3125 42.1875 26.4688" id="LiberationSans-6f"/>
      <path d="
M39.8438 0
L21.9688 24.125
L15.5312 18.7969
L15.5312 0
L6.73438 0
L6.73438 72.4688
L15.5312 72.4688
L15.5312 27.2031
L38.7188 52.8281
L49.0312 52.8281
L27.5938 30.125
L50.1406 0
z
" id="LiberationSans-6b"/>
      <path d="
M6.73438 0
L6.73438 72.4688
L15.5312 72.4688
L15.5312 0
z
" id="LiberationSans-6c"/>
      <path id="LiberationSans-20"/>
     </defs>
     <g style="fill:#262626;" transform="translate(49.7328125 332.2)rotate(-90.0)scale(0.2 -0.2)">
      <use transform="translate(0.0 0.8578125)" xlink:href="#Cmr10-a2"/>
      <use transform="translate(83.30078125 0.8578125)" xlink:href="#Cmr10-a2"/>
      <use transform="translate(166.6015625 0.8578125)" xlink:href="#Cmmi10-47"/>
      <use transform="translate(245.21484375 0.8578125)" xlink:href="#LiberationSans-20"/>
      <use transform="translate(272.998046875 0.8578125)" xlink:href="#LiberationSans-2f"/>
      <use transform="translate(300.78125 0.8578125)" xlink:href="#LiberationSans-20"/>
      <use transform="translate(328.564453125 0.8578125)" xlink:href="#LiberationSans-6b"/>
      <use transform="translate(378.564453125 0.8578125)" xlink:href="#LiberationSans-63"/>
      <use transform="translate(428.564453125 0.8578125)" xlink:href="#LiberationSans-61"/>
      <use transform="translate(484.1796875 0.8578125)" xlink:href="#LiberationSans-6c"/>
      <use transform="translate(506.396484375 0.8578125)" xlink:href="#LiberationSans-20"/>
      <use transform="translate(534.1796875 0.8578125)" xlink:href="#LiberationSans-6d"/>
      <use transform="translate(617.48046875 0.8578125)" xlink:href="#LiberationSans-6f"/>
      <use transform="translate(673.095703125 0.8578125)" xlink:href="#LiberationSans-6c"/>
      <use transform="translate(695.3125 43.3734375)scale(0.7)" xlink:href="#Cmsy10-a1"/>
      <use transform="translate(749.692382812 43.3734375)scale(0.7)" xlink:href="#Cmr10-31"/>
     </g>
    </g>
   </g>
   <g id="patch_3">
    <path clip-path="url(#pac498d0293)" d="
M136.5 133.93
L152 133.93
L152 117.6
L136.5 117.6
z
" style="fill:#0000ff;stroke:#000000;stroke-linejoin:miter;stroke-width:0.3;"/>
   </g>
   <g id="patch_4">
    <path clip-path="url(#pac498d0293)" d="
M152 123.86
L167.5 123.86
L167.5 117.6
L152 117.6
z
" style="fill:#ff0000;stroke:#000000;stroke-linejoin:miter;stroke-width:0.3;"/>
   </g>
   <g id="patch_5">
    <path clip-path="url(#pac498d0293)" d="
M167.5 118.084
L183 118.084
L183 117.6
L167.5 117.6
z
" style="fill:#ffa500;stroke:#000000;stroke-linejoin:miter;stroke-width:0.3;"/>
   </g>
   <g id="patch_6">
    <path clip-path="url(#pac498d0293)" d="
M198.5 326.921
L214 326.921
L214 117.6
L198.5 117.6
z
" style="fill:#0000ff;stroke:#000000;stroke-linejoin:miter;stroke-width:0.3;"/>
   </g>
   <g id="patch_7">
    <path clip-path="url(#pac498d0293)" d="
M214 324.159
L229.5 324.159
L229.5 117.6
L214 117.6
z
" style="fill:#ff0000;stroke:#000000;stroke-linejoin:miter;stroke-width:0.3;"/>
   </g>
   <g id="patch_8">
    <path clip-path="url(#pac498d0293)" d="
M229.5 322.261
L245 322.261
L245 117.6
L229.5 117.6
z
" style="fill:#ffa500;stroke:#000000;stroke-linejoin:miter;stroke-width:0.3;"/>
   </g>
   <g id="patch_9">
    <path clip-path="url(#pac498d0293)" d="
M260.5 322.016
L276 322.016
L276 117.6
L260.5 117.6
z
" style="fill:#0000ff;stroke:#000000;stroke-linejoin:miter;stroke-width:0.3;"/>
   </g>
   <g id="patch_10">
    <path clip-path="url(#pac498d0293)" d="
M276 324.371
L291.5 324.371
L291.5 117.6
L276 117.6
z
" style="fill:#ff0000;stroke:#000000;stroke-linejoin:miter;stroke-width:0.3;"/>
   </g>
   <g id="patch_11">
    <path clip-path="url(#pac498d0293)" d="
M291.5 318.148
L307 318.148
L307 117.6
L291.5 117.6
z
" style="fill:#ffa500;stroke:#000000;stroke-linejoin:miter;stroke-width:0.3;"/>
   </g>
   <g id="patch_12">
    <path clip-path="url(#pac498d0293)" d="
M322.5 231.917
L338 231.917
L338 117.6
L322.5 117.6
z
" style="fill:#0000ff;stroke:#000000;stroke-linejoin:miter;stroke-width:0.3;"/>
   </g>
   <g id="patch_13">
    <path clip-path="url(#pac498d0293)" d="
M338 214.872
L353.5 214.872
L353.5 117.6
L338 117.6
z
" style="fill:#ff0000;stroke:#000000;stroke-linejoin:miter;stroke-width:0.3;"/>
   </g>
   <g id="patch_14">
    <path clip-path="url(#pac498d0293)" d="
M353.5 212.812
L369 212.812
L369 117.6
L353.5 117.6
z
" style="fill:#ffa500;stroke:#000000;stroke-linejoin:miter;stroke-width:0.3;"/>
   </g>
   <g id="patch_15">
    <path clip-path="url(#pac498d0293)" d="
M384.5 244.944
L400 244.944
L400 117.6
L384.5 117.6
z
" style="fill:#0000ff;stroke:#000000;stroke-linejoin:miter;stroke-width:0.3;"/>
   </g>
   <g id="patch_16">
    <path clip-path="url(#pac498d0293)" d="
M400 220.816
L415.5 220.816
L415.5 117.6
L400 117.6
z
" style="fill:#ff0000;stroke:#000000;stroke-linejoin:miter;stroke-width:0.3;"/>
   </g>
   <g id="patch_17">
    <path clip-path="url(#pac498d0293)" d="
M415.5 220.705
L431 220.705
L431 117.6
L415.5 117.6
z
" style="fill:#ffa500;stroke:#000000;stroke-linejoin:miter;stroke-width:0.3;"/>
   </g>
   <g id="patch_18">
    <path clip-path="url(#pac498d0293)" d="
M446.5 425.04
L462 425.04
L462 117.6
L446.5 117.6
z
" style="fill:#0000ff;stroke:#000000;stroke-linejoin:miter;stroke-width:0.3;"/>
   </g>
   <g id="patch_19">
    <path clip-path="url(#pac498d0293)" d="
M462 407.088
L477.5 407.088
L477.5 117.6
L462 117.6
z
" style="fill:#ff0000;stroke:#000000;stroke-linejoin:miter;stroke-width:0.3;"/>
   </g>
   <g id="patch_20">
    <path clip-path="url(#pac498d0293)" d="
M477.5 409.036
L493 409.036
L493 117.6
L477.5 117.6
z
" style="fill:#ffa500;stroke:#000000;stroke-linejoin:miter;stroke-width:0.3;"/>
   </g>
   <g id="patch_21">
    <path clip-path="url(#pac498d0293)" d="
M508.5 188.096
L524 188.096
L524 117.6
L508.5 117.6
z
" style="fill:#0000ff;stroke:#000000;stroke-linejoin:miter;stroke-width:0.3;"/>
   </g>
   <g id="patch_22">
    <path clip-path="url(#pac498d0293)" d="
M524 117.6
L539.5 117.6
L539.5 116.972
L524 116.972
z
" style="fill:#ff0000;stroke:#000000;stroke-linejoin:miter;stroke-width:0.3;"/>
   </g>
   <g id="patch_23">
    <path clip-path="url(#pac498d0293)" d="
M539.5 117.6
L555 117.6
L555 112.93
L539.5 112.93
z
" style="fill:#ffa500;stroke:#000000;stroke-linejoin:miter;stroke-width:0.3;"/>
   </g>
   <g id="patch_24">
    <path clip-path="url(#pac498d0293)" d="
M570.5 133.93
L586 133.93
L586 117.6
L570.5 117.6
z
" style="fill:#0000ff;stroke:#000000;stroke-linejoin:miter;stroke-width:0.3;"/>
   </g>
   <g id="patch_25">
    <path clip-path="url(#pac498d0293)" d="
M586 117.6
L601.5 117.6
L601.5 112.325
L586 112.325
z
" style="fill:#ff0000;stroke:#000000;stroke-linejoin:miter;stroke-width:0.3;"/>
   </g>
   <g id="patch_26">
    <path clip-path="url(#pac498d0293)" d="
M601.5 117.6
L617 117.6
L617 114.106
L601.5 114.106
z
" style="fill:#ffa500;stroke:#000000;stroke-linejoin:miter;stroke-width:0.3;"/>
   </g>
   <g id="LineCollection_1">
    <path clip-path="url(#pac498d0293)" d="
M144.25 134.03
L144.25 133.829" style="fill:none;stroke:#000000;stroke-width:2.0;"/>
   </g>
   <g id="LineCollection_2">
    <path clip-path="url(#pac498d0293)" d="
M159.75 125.247
L159.75 122.472" style="fill:none;stroke:#000000;stroke-width:2.0;"/>
   </g>
   <g id="LineCollection_3">
    <path clip-path="url(#pac498d0293)" d="
M175.25 119.955
L175.25 116.212" style="fill:none;stroke:#000000;stroke-width:2.0;"/>
   </g>
   <g id="LineCollection_4">
    <path clip-path="url(#pac498d0293)" d="
M206.25 327.348
L206.25 326.495" style="fill:none;stroke:#000000;stroke-width:2.0;"/>
   </g>
   <g id="LineCollection_5">
    <path clip-path="url(#pac498d0293)" d="
M221.75 325.208
L221.75 323.111" style="fill:none;stroke:#000000;stroke-width:2.0;"/>
   </g>
   <g id="LineCollection_6">
    <path clip-path="url(#pac498d0293)" d="
M237.25 323.434
L237.25 321.088" style="fill:none;stroke:#000000;stroke-width:2.0;"/>
   </g>
   <g id="LineCollection_7">
    <path clip-path="url(#pac498d0293)" d="
M268.25 322.261
L268.25 321.77" style="fill:none;stroke:#000000;stroke-width:2.0;"/>
   </g>
   <g id="LineCollection_8">
    <path clip-path="url(#pac498d0293)" d="
M283.75 324.942
L283.75 323.8" style="fill:none;stroke:#000000;stroke-width:2.0;"/>
   </g>
   <g id="LineCollection_9">
    <path clip-path="url(#pac498d0293)" d="
M299.25 319.549
L299.25 316.747" style="fill:none;stroke:#000000;stroke-width:2.0;"/>
   </g>
   <g id="LineCollection_10">
    <path clip-path="url(#pac498d0293)" d="
M330.25 232.959
L330.25 230.876" style="fill:none;stroke:#000000;stroke-width:2.0;"/>
   </g>
   <g id="LineCollection_11">
    <path clip-path="url(#pac498d0293)" d="
M345.75 217.012
L345.75 212.732" style="fill:none;stroke:#000000;stroke-width:2.0;"/>
   </g>
   <g id="LineCollection_12">
    <path clip-path="url(#pac498d0293)" d="
M361.25 214.039
L361.25 211.586" style="fill:none;stroke:#000000;stroke-width:2.0;"/>
   </g>
   <g id="LineCollection_13">
    <path clip-path="url(#pac498d0293)" d="
M392.25 245.952
L392.25 243.936" style="fill:none;stroke:#000000;stroke-width:2.0;"/>
   </g>
   <g id="LineCollection_14">
    <path clip-path="url(#pac498d0293)" d="
M407.75 222.949
L407.75 218.682" style="fill:none;stroke:#000000;stroke-width:2.0;"/>
   </g>
   <g id="LineCollection_15">
    <path clip-path="url(#pac498d0293)" d="
M423.25 221.434
L423.25 219.976" style="fill:none;stroke:#000000;stroke-width:2.0;"/>
   </g>
   <g id="LineCollection_16">
    <path clip-path="url(#pac498d0293)" d="
M454.25 426.485
L454.25 423.595" style="fill:none;stroke:#000000;stroke-width:2.0;"/>
   </g>
   <g id="LineCollection_17">
    <path clip-path="url(#pac498d0293)" d="
M469.75 408.475
L469.75 405.7" style="fill:none;stroke:#000000;stroke-width:2.0;"/>
   </g>
   <g id="LineCollection_18">
    <path clip-path="url(#pac498d0293)" d="
M485.25 411.812
L485.25 406.261" style="fill:none;stroke:#000000;stroke-width:2.0;"/>
   </g>
   <g id="LineCollection_19">
    <path clip-path="url(#pac498d0293)" d="
M516.25 188.533
L516.25 187.659" style="fill:none;stroke:#000000;stroke-width:2.0;"/>
   </g>
   <g id="LineCollection_20">
    <path clip-path="url(#pac498d0293)" d="
M531.75 119.048
L531.75 114.895" style="fill:none;stroke:#000000;stroke-width:2.0;"/>
   </g>
   <g id="LineCollection_21">
    <path clip-path="url(#pac498d0293)" d="
M547.25 114.778
L547.25 111.082" style="fill:none;stroke:#000000;stroke-width:2.0;"/>
   </g>
   <g id="LineCollection_22">
    <path clip-path="url(#pac498d0293)" d="
M578.25 134.03
L578.25 133.829" style="fill:none;stroke:#000000;stroke-width:2.0;"/>
   </g>
   <g id="LineCollection_23">
    <path clip-path="url(#pac498d0293)" d="
M593.75 113.602
L593.75 111.048" style="fill:none;stroke:#000000;stroke-width:2.0;"/>
   </g>
   <g id="LineCollection_24">
    <path clip-path="url(#pac498d0293)" d="
M609.25 116.216
L609.25 111.996" style="fill:none;stroke:#000000;stroke-width:2.0;"/>
   </g>
   <g id="line2d_38">
    <defs>
     <path d="
M3 1.83697e-16
L-3 -1.83697e-16" id="md9408d3391"/>
    </defs>
    <g clip-path="url(#pac498d0293)">
     <use x="144.25" xlink:href="#md9408d3391" y="134.0304"/>
    </g>
   </g>
   <g id="line2d_39">
    <g clip-path="url(#pac498d0293)">
     <use x="144.25" xlink:href="#md9408d3391" y="133.8288"/>
    </g>
   </g>
   <g id="line2d_40">
    <g clip-path="url(#pac498d0293)">
     <use x="159.75" xlink:href="#md9408d3391" y="125.24736"/>
    </g>
   </g>
   <g id="line2d_41">
    <g clip-path="url(#pac498d0293)">
     <use x="159.75" xlink:href="#md9408d3391" y="122.472"/>
    </g>
   </g>
   <g id="line2d_42">
    <g clip-path="url(#pac498d0293)">
     <use x="175.25" xlink:href="#md9408d3391" y="119.95536"/>
    </g>
   </g>
   <g id="line2d_43">
    <g clip-path="url(#pac498d0293)">
     <use x="175.25" xlink:href="#md9408d3391" y="116.21232"/>
    </g>
   </g>
   <g id="line2d_44">
    <g clip-path="url(#pac498d0293)">
     <use x="206.25" xlink:href="#md9408d3391" y="327.348"/>
    </g>
   </g>
   <g id="line2d_45">
    <g clip-path="url(#pac498d0293)">
     <use x="206.25" xlink:href="#md9408d3391" y="326.49456"/>
    </g>
   </g>
   <g id="line2d_46">
    <g clip-path="url(#pac498d0293)">
     <use x="221.75" xlink:href="#md9408d3391" y="325.20768"/>
    </g>
   </g>
   <g id="line2d_47">
    <g clip-path="url(#pac498d0293)">
     <use x="221.75" xlink:href="#md9408d3391" y="323.11104"/>
    </g>
   </g>
   <g id="line2d_48">
    <g clip-path="url(#pac498d0293)">
     <use x="237.25" xlink:href="#md9408d3391" y="323.4336"/>
    </g>
   </g>
   <g id="line2d_49">
    <g clip-path="url(#pac498d0293)">
     <use x="237.25" xlink:href="#md9408d3391" y="321.08832"/>
    </g>
   </g>
   <g id="line2d_50">
    <g clip-path="url(#pac498d0293)">
     <use x="268.25" xlink:href="#md9408d3391" y="322.26096"/>
    </g>
   </g>
   <g id="line2d_51">
    <g clip-path="url(#pac498d0293)">
     <use x="268.25" xlink:href="#md9408d3391" y="321.7704"/>
    </g>
   </g>
   <g id="line2d_52">
    <g clip-path="url(#pac498d0293)">
     <use x="283.75" xlink:href="#md9408d3391" y="324.94224"/>
    </g>
   </g>
   <g id="line2d_53">
    <g clip-path="url(#pac498d0293)">
     <use x="283.75" xlink:href="#md9408d3391" y="323.79984"/>
    </g>
   </g>
   <g id="line2d_54">
    <g clip-path="url(#pac498d0293)">
     <use x="299.25" xlink:href="#md9408d3391" y="319.54944"/>
    </g>
   </g>
   <g id="line2d_55">
    <g clip-path="url(#pac498d0293)">
     <use x="299.25" xlink:href="#md9408d3391" y="316.7472"/>
    </g>
   </g>
   <g id="line2d_56">
    <g clip-path="url(#pac498d0293)">
     <use x="330.25" xlink:href="#md9408d3391" y="232.95888"/>
    </g>
   </g>
   <g id="line2d_57">
    <g clip-path="url(#pac498d0293)">
     <use x="330.25" xlink:href="#md9408d3391" y="230.87568"/>
    </g>
   </g>
   <g id="line2d_58">
    <g clip-path="url(#pac498d0293)">
     <use x="345.75" xlink:href="#md9408d3391" y="217.01232"/>
    </g>
   </g>
   <g id="line2d_59">
    <g clip-path="url(#pac498d0293)">
     <use x="345.75" xlink:href="#md9408d3391" y="212.73168"/>
    </g>
   </g>
   <g id="line2d_60">
    <g clip-path="url(#pac498d0293)">
     <use x="361.25" xlink:href="#md9408d3391" y="214.03872"/>
    </g>
   </g>
   <g id="line2d_61">
    <g clip-path="url(#pac498d0293)">
     <use x="361.25" xlink:href="#md9408d3391" y="211.58592"/>
    </g>
   </g>
   <g id="line2d_62">
    <g clip-path="url(#pac498d0293)">
     <use x="392.25" xlink:href="#md9408d3391" y="245.952"/>
    </g>
   </g>
   <g id="line2d_63">
    <g clip-path="url(#pac498d0293)">
     <use x="392.25" xlink:href="#md9408d3391" y="243.936"/>
    </g>
   </g>
   <g id="line2d_64">
    <g clip-path="url(#pac498d0293)">
     <use x="407.75" xlink:href="#md9408d3391" y="222.94944"/>
    </g>
   </g>
   <g id="line2d_65">
    <g clip-path="url(#pac498d0293)">
     <use x="407.75" xlink:href="#md9408d3391" y="218.68224"/>
    </g>
   </g>
   <g id="line2d_66">
    <g clip-path="url(#pac498d0293)">
     <use x="423.25" xlink:href="#md9408d3391" y="221.43408"/>
    </g>
   </g>
   <g id="line2d_67">
    <g clip-path="url(#pac498d0293)">
     <use x="423.25" xlink:href="#md9408d3391" y="219.97584"/>
    </g>
   </g>
   <g id="line2d_68">
    <g clip-path="url(#pac498d0293)">
     <use x="454.25" xlink:href="#md9408d3391" y="426.4848"/>
    </g>
   </g>
   <g id="line2d_69">
    <g clip-path="url(#pac498d0293)">
     <use x="454.25" xlink:href="#md9408d3391" y="423.5952"/>
    </g>
   </g>
   <g id="line2d_70">
    <g clip-path="url(#pac498d0293)">
     <use x="469.75" xlink:href="#md9408d3391" y="408.4752"/>
    </g>
   </g>
   <g id="line2d_71">
    <g clip-path="url(#pac498d0293)">
     <use x="469.75" xlink:href="#md9408d3391" y="405.69984"/>
    </g>
   </g>
   <g id="line2d_72">
    <g clip-path="url(#pac498d0293)">
     <use x="485.25" xlink:href="#md9408d3391" y="411.81168"/>
    </g>
   </g>
   <g id="line2d_73">
    <g clip-path="url(#pac498d0293)">
     <use x="485.25" xlink:href="#md9408d3391" y="406.26096"/>
    </g>
   </g>
   <g id="line2d_74">
    <g clip-path="url(#pac498d0293)">
     <use x="516.25" xlink:href="#md9408d3391" y="188.53296"/>
    </g>
   </g>
   <g id="line2d_75">
    <g clip-path="url(#pac498d0293)">
     <use x="516.25" xlink:href="#md9408d3391" y="187.65936"/>
    </g>
   </g>
   <g id="line2d_76">
    <g clip-path="url(#pac498d0293)">
     <use x="531.75" xlink:href="#md9408d3391" y="119.04816"/>
    </g>
   </g>
   <g id="line2d_77">
    <g clip-path="url(#pac498d0293)">
     <use x="531.75" xlink:href="#md9408d3391" y="114.8952"/>
    </g>
   </g>
   <g id="line2d_78">
    <g clip-path="url(#pac498d0293)">
     <use x="547.25" xlink:href="#md9408d3391" y="114.7776"/>
    </g>
   </g>
   <g id="line2d_79">
    <g clip-path="url(#pac498d0293)">
     <use x="547.25" xlink:href="#md9408d3391" y="111.0816"/>
    </g>
   </g>
   <g id="line2d_80">
    <g clip-path="url(#pac498d0293)">
     <use x="578.25" xlink:href="#md9408d3391" y="134.0304"/>
    </g>
   </g>
   <g id="line2d_81">
    <g clip-path="url(#pac498d0293)">
     <use x="578.25" xlink:href="#md9408d3391" y="133.8288"/>
    </g>
   </g>
   <g id="line2d_82">
    <g clip-path="url(#pac498d0293)">
     <use x="593.75" xlink:href="#md9408d3391" y="113.6016"/>
    </g>
   </g>
   <g id="line2d_83">
    <g clip-path="url(#pac498d0293)">
     <use x="593.75" xlink:href="#md9408d3391" y="111.048"/>
    </g>
   </g>
   <g id="line2d_84">
    <g clip-path="url(#pac498d0293)">
     <use x="609.25" xlink:href="#md9408d3391" y="116.21568"/>
    </g>
   </g>
   <g id="line2d_85">
    <g clip-path="url(#pac498d0293)">
     <use x="609.25" xlink:href="#md9408d3391" y="111.99552"/>
    </g>
   </g>
   <g id="patch_27">
    <path d="
M90 50.4
L648 50.4" style="fill:none;stroke:#cccccc;stroke-linecap:square;stroke-linejoin:miter;"/>
   </g>
   <g id="patch_28">
    <path d="
M648 453.6
L648 50.4" style="fill:none;stroke:#cccccc;stroke-linecap:square;stroke-linejoin:miter;"/>
   </g>
   <g id="patch_29">
    <path d="
M90 453.6
L648 453.6" style="fill:none;stroke:#cccccc;stroke-linecap:square;stroke-linejoin:miter;"/>
   </g>
   <g id="patch_30">
    <path d="
M90 453.6
L90 50.4" style="fill:none;stroke:#cccccc;stroke-linecap:square;stroke-linejoin:miter;"/>
   </g>
   <g id="legend_1">
    <g id="patch_31">
     <path d="
M108 374.163
L148 374.163
L148 360.163
L108 360.163
z
" style="fill:#0000ff;stroke:#000000;stroke-linejoin:miter;stroke-width:0.3;"/>
    </g>
    <g id="text_17">
     <!-- All bonds -->
     <defs>
      <path d="
M40.0938 8.5
Q37.6406 3.42188 33.6094 1.21875
Q29.5938 -0.984375 23.6406 -0.984375
Q13.625 -0.984375 8.90625 5.75
Q4.20312 12.5 4.20312 26.1719
Q4.20312 53.8125 23.6406 53.8125
Q29.6406 53.8125 33.6406 51.6094
Q37.6406 49.4219 40.0938 44.625
L40.1875 44.625
Q40.1875 45.125 40.1562 46.1719
Q40.1406 47.2188 40.1094 48.3594
Q40.0938 49.5156 40.0938 50.5312
Q40.0938 51.5625 40.0938 52
L40.0938 72.4688
L48.875 72.4688
L48.875 10.8906
Q48.875 8.98438 48.8906 7.21875
Q48.9219 5.46875 48.9688 4
Q49.0312 2.54688 49.0781 1.48438
Q49.125 0.4375 49.1719 0
L40.7656 0
Q40.6719 0.484375 40.5938 1.39062
Q40.5312 2.29688 40.4531 3.46875
Q40.375 4.64062 40.3281 5.9375
Q40.2812 7.23438 40.2812 8.5
z

M13.4219 26.4688
Q13.4219 21 14.1094 17.0938
Q14.7969 13.1875 16.3125 10.6719
Q17.8281 8.15625 20.1719 6.98438
Q22.5156 5.8125 25.875 5.8125
Q29.3438 5.8125 32 6.9375
Q34.6719 8.0625 36.4531 10.5781
Q38.2344 13.0938 39.1562 17.1406
Q40.0938 21.1875 40.0938 27.0469
Q40.0938 32.6719 39.1562 36.5469
Q38.2344 40.4375 36.4219 42.8281
Q34.625 45.2188 32 46.2656
Q29.3906 47.3125 25.9844 47.3125
Q22.75 47.3125 20.4062 46.1875
Q18.0625 45.0625 16.5 42.5781
Q14.9375 40.0938 14.1719 36.1094
Q13.4219 32.125 13.4219 26.4688" id="LiberationSans-64"/>
      <path d="
M40.2812 0
L40.2812 33.5
Q40.2812 37.3594 39.7188 39.9375
Q39.1562 42.5312 37.8906 44.1094
Q36.625 45.7031 34.5469 46.3594
Q32.4688 47.0156 29.3906 47.0156
Q26.2656 47.0156 23.75 45.9219
Q21.2344 44.8281 19.4531 42.75
Q17.6719 40.6719 16.6875 37.625
Q15.7188 34.5781 15.7188 30.6094
L15.7188 0
L6.9375 0
L6.9375 41.5469
Q6.9375 43.2188 6.90625 45.0469
Q6.89062 46.875 6.82812 48.5
Q6.78125 50.1406 6.73438 51.3125
Q6.6875 52.4844 6.64062 52.8281
L14.9375 52.8281
Q14.9844 52.5938 15.0312 51.5156
Q15.0938 50.4375 15.1562 49.0469
Q15.2344 47.6562 15.2812 46.2188
Q15.3281 44.7812 15.3281 43.7969
L15.4844 43.7969
Q16.75 46.0938 18.2656 47.9531
Q19.7812 49.8125 21.7812 51.0938
Q23.7812 52.3906 26.3594 53.0938
Q28.9531 53.8125 32.375 53.8125
Q36.7656 53.8125 39.9375 52.7344
Q43.1094 51.6562 45.1562 49.4062
Q47.2188 47.1719 48.1719 43.625
Q49.125 40.0938 49.125 35.2031
L49.125 0
z
" id="LiberationSans-6e"/>
      <path d="
M46.3906 14.5938
Q46.3906 10.8906 44.9375 7.98438
Q43.5 5.07812 40.7656 3.09375
Q38.0312 1.125 34.0469 0.0625
Q30.0781 -0.984375 24.9531 -0.984375
Q20.3594 -0.984375 16.6719 -0.265625
Q12.9844 0.4375 10.2031 2
Q7.42188 3.5625 5.53125 6.125
Q3.65625 8.6875 2.78125 12.4062
L10.5469 13.9219
Q11.6719 9.67188 15.1875 7.6875
Q18.7031 5.71875 24.9531 5.71875
Q27.7812 5.71875 30.1406 6.10938
Q32.5156 6.5 34.2188 7.45312
Q35.9375 8.40625 36.8906 9.98438
Q37.8438 11.5781 37.8438 13.9219
Q37.8438 16.3125 36.7188 17.8438
Q35.5938 19.3906 33.5938 20.4062
Q31.5938 21.4375 28.7344 22.1875
Q25.875 22.9531 22.4688 23.875
Q19.2812 24.7031 16.1562 25.7344
Q13.0312 26.7656 10.5156 28.4375
Q8.01562 30.125 6.45312 32.6094
Q4.89062 35.1094 4.89062 38.875
Q4.89062 46.0938 10.0312 49.875
Q15.1875 53.6562 25.0469 53.6562
Q33.7969 53.6562 38.9375 50.5781
Q44.0938 47.5156 45.4531 40.7188
L37.5469 39.75
Q37.1094 41.7969 35.9375 43.1875
Q34.7656 44.5781 33.1094 45.4375
Q31.4531 46.2969 29.375 46.6562
Q27.2969 47.0156 25.0469 47.0156
Q19.0938 47.0156 16.25 45.2031
Q13.4219 43.4062 13.4219 39.75
Q13.4219 37.5938 14.4688 36.2031
Q15.5312 34.8125 17.4062 33.8594
Q19.2812 32.9062 21.9219 32.2031
Q24.5625 31.5 27.7344 30.7188
Q29.8281 30.1719 32.0312 29.5625
Q34.2344 28.9531 36.2969 28.0938
Q38.375 27.25 40.2031 26.0938
Q42.0469 24.9531 43.4062 23.3438
Q44.7812 21.7344 45.5781 19.5781
Q46.3906 17.4375 46.3906 14.5938" id="LiberationSans-73"/>
      <path d="
M51.4219 26.6562
Q51.4219 -0.984375 31.9844 -0.984375
Q25.9844 -0.984375 22 1.1875
Q18.0156 3.375 15.5312 8.20312
L15.4375 8.20312
Q15.4375 6.9375 15.3594 5.5625
Q15.2812 4.20312 15.2031 3.03125
Q15.1406 1.85938 15.0625 1.03125
Q14.9844 0.203125 14.9375 0
L6.45312 0
Q6.5 0.4375 6.54688 1.48438
Q6.59375 2.54688 6.64062 4
Q6.6875 5.46875 6.70312 7.21875
Q6.73438 8.98438 6.73438 10.8906
L6.73438 72.4688
L15.5312 72.4688
L15.5312 51.8125
Q15.5312 50.3438 15.5 49
Q15.4844 47.6562 15.4375 46.625
Q15.375 45.4062 15.3281 44.3438
L15.5312 44.3438
Q17.9688 49.4219 22 51.6094
Q26.0312 53.8125 31.9844 53.8125
Q42 53.8125 46.7031 47.0625
Q51.4219 40.3281 51.4219 26.6562
M42.1875 26.375
Q42.1875 31.8438 41.5 35.75
Q40.8281 39.6562 39.3125 42.1562
Q37.7969 44.6719 35.4531 45.8438
Q33.1094 47.0156 29.7344 47.0156
Q26.2656 47.0156 23.6094 45.8906
Q20.9531 44.7812 19.1719 42.2812
Q17.3906 39.7969 16.4531 35.7344
Q15.5312 31.6875 15.5312 25.8281
Q15.5312 20.1719 16.4531 16.3125
Q17.3906 12.4531 19.1719 10.0312
Q20.9531 7.625 23.5781 6.5625
Q26.2188 5.51562 29.6406 5.51562
Q32.8594 5.51562 35.2031 6.64062
Q37.5469 7.76562 39.1094 10.25
Q40.6719 12.75 41.4219 16.7188
Q42.1875 20.7031 42.1875 26.375" id="LiberationSans-62"/>
     </defs>
     <g style="fill:#262626;" transform="translate(164.0 374.1625)scale(0.2 -0.2)">
      <use xlink:href="#LiberationSans-41"/>
      <use x="66.69921875" xlink:href="#LiberationSans-6c"/>
      <use x="88.916015625" xlink:href="#LiberationSans-6c"/>
      <use x="111.1328125" xlink:href="#LiberationSans-20"/>
      <use x="138.916015625" xlink:href="#LiberationSans-62"/>
      <use x="194.53125" xlink:href="#LiberationSans-6f"/>
      <use x="250.146484375" xlink:href="#LiberationSans-6e"/>
      <use x="305.76171875" xlink:href="#LiberationSans-64"/>
      <use x="361.376953125" xlink:href="#LiberationSans-73"/>
     </g>
    </g>
    <g id="patch_32">
     <path d="
M108 402.806
L148 402.806
L148 388.806
L108 388.806
z
" style="fill:#ff0000;stroke:#000000;stroke-linejoin:miter;stroke-width:0.3;"/>
    </g>
    <g id="text_18">
     <!-- None -->
     <defs>
      <path d="
M13.4844 24.5625
Q13.4844 20.4062 14.3281 16.9062
Q15.1875 13.4219 16.9688 10.9062
Q18.75 8.40625 21.5312 7
Q24.3125 5.60938 28.2188 5.60938
Q33.9375 5.60938 37.375 7.90625
Q40.8281 10.2031 42.0469 13.7188
L49.75 11.5312
Q48.9219 9.32812 47.4375 7.10938
Q45.9531 4.89062 43.4531 3.09375
Q40.9688 1.3125 37.2344 0.15625
Q33.5 -0.984375 28.2188 -0.984375
Q16.5 -0.984375 10.375 6
Q4.25 12.9844 4.25 26.7656
Q4.25 34.1875 6.09375 39.3281
Q7.95312 44.4844 11.1719 47.7031
Q14.4062 50.9219 18.7031 52.3594
Q23 53.8125 27.875 53.8125
Q34.5156 53.8125 38.9844 51.6562
Q43.4531 49.5156 46.1562 45.7188
Q48.875 41.9375 50.0156 36.8125
Q51.1719 31.6875 51.1719 25.7344
L51.1719 24.5625
z

M42.0938 31.2969
Q41.3594 39.6562 37.8438 43.4844
Q34.3281 47.3125 27.7344 47.3125
Q25.5312 47.3125 23.1094 46.6094
Q20.7031 45.9062 18.6562 44.0938
Q16.6094 42.2812 15.1875 39.1719
Q13.7656 36.0781 13.5781 31.2969
z
" id="LiberationSans-65"/>
      <path d="
M52.8281 0
L16.0156 58.5938
Q16.1094 56.2031 16.2656 53.8594
Q16.3594 51.8594 16.4219 49.625
Q16.5 47.4062 16.5 45.7031
L16.5 0
L8.20312 0
L8.20312 68.7969
L19.0469 68.7969
L56.25 9.8125
Q56.1094 12.2031 55.9531 14.5938
Q55.8594 16.6562 55.7656 19.0625
Q55.6719 21.4844 55.6719 23.6875
L55.6719 68.7969
L64.0625 68.7969
L64.0625 0
z
" id="LiberationSans-4e"/>
     </defs>
     <g style="fill:#262626;" transform="translate(164.0 402.80625)scale(0.2 -0.2)">
      <use xlink:href="#LiberationSans-4e"/>
      <use x="72.216796875" xlink:href="#LiberationSans-6f"/>
      <use x="127.83203125" xlink:href="#LiberationSans-6e"/>
      <use x="183.447265625" xlink:href="#LiberationSans-65"/>
     </g>
    </g>
    <g id="patch_33">
     <path d="
M108 431.45
L148 431.45
L148 417.45
L108 417.45
z
" style="fill:#ffa500;stroke:#000000;stroke-linejoin:miter;stroke-width:0.3;"/>
    </g>
    <g id="text_19">
     <!-- H bonds not pert -->
     <defs>
      <path d="
M6.9375 0
L6.9375 40.5312
Q6.9375 42.1875 6.90625 43.9219
Q6.89062 45.6562 6.82812 47.2656
Q6.78125 48.875 6.73438 50.2812
Q6.6875 51.7031 6.64062 52.8281
L14.9375 52.8281
Q14.9844 51.7031 15.0625 50.2656
Q15.1406 48.8281 15.2031 47.3125
Q15.2812 45.7969 15.2969 44.4062
Q15.3281 43.0156 15.3281 42.0469
L15.5312 42.0469
Q16.4531 45.0625 17.5 47.2812
Q18.5625 49.5156 19.9688 50.9531
Q21.3906 52.3906 23.3438 53.0938
Q25.2969 53.8125 28.0781 53.8125
Q29.1562 53.8125 30.125 53.6406
Q31.1094 53.4688 31.6406 53.3281
L31.6406 45.2656
Q30.7656 45.5156 29.5938 45.625
Q28.4219 45.75 26.9531 45.75
Q23.9219 45.75 21.7969 44.375
Q19.6719 43.0156 18.3281 40.5938
Q17 38.1875 16.3594 34.8438
Q15.7188 31.5 15.7188 27.5469
L15.7188 0
z
" id="LiberationSans-72"/>
      <path d="
M51.4219 26.6562
Q51.4219 20.6562 50.4375 15.5781
Q49.4688 10.5 47.1875 6.82812
Q44.9219 3.17188 41.1875 1.09375
Q37.4531 -0.984375 31.9844 -0.984375
Q26.3125 -0.984375 22.0625 1.17188
Q17.8281 3.32812 15.5781 8.20312
L15.3281 8.20312
Q15.375 8.10938 15.4062 7.32812
Q15.4375 6.54688 15.4531 5.375
Q15.4844 4.20312 15.5 2.75
Q15.5312 1.3125 15.5312 -0.09375
L15.5312 -20.75
L6.73438 -20.75
L6.73438 42.0469
Q6.73438 43.9531 6.70312 45.7031
Q6.6875 47.4688 6.64062 48.9062
Q6.59375 50.3438 6.54688 51.3594
Q6.5 52.3906 6.45312 52.8281
L14.9375 52.8281
Q14.9844 52.6875 15.0625 51.7969
Q15.1406 50.9219 15.2031 49.6719
Q15.2812 48.4375 15.3594 47.0156
Q15.4375 45.6094 15.4375 44.3438
L15.625 44.3438
Q16.8438 46.875 18.4062 48.6562
Q19.9688 50.4375 21.9688 51.5781
Q23.9688 52.7344 26.4375 53.25
Q28.9062 53.7656 31.9844 53.7656
Q37.4531 53.7656 41.1875 51.8125
Q44.9219 49.8594 47.1875 46.3125
Q49.4688 42.7812 50.4375 37.7656
Q51.4219 32.7656 51.4219 26.6562
M42.1875 26.4688
Q42.1875 31.3438 41.5938 35.1562
Q41.0156 38.9688 39.5781 41.5938
Q38.1406 44.2344 35.7344 45.5938
Q33.3438 46.9688 29.7344 46.9688
Q26.8125 46.9688 24.2188 46.1406
Q21.625 45.3125 19.7031 42.9688
Q17.7812 40.625 16.6562 36.5
Q15.5312 32.375 15.5312 25.7812
Q15.5312 20.1719 16.4531 16.2812
Q17.3906 12.4062 19.1719 10.0156
Q20.9531 7.625 23.5781 6.5625
Q26.2188 5.51562 29.6406 5.51562
Q33.2969 5.51562 35.7188 6.92188
Q38.1406 8.34375 39.5781 11.0312
Q41.0156 13.7188 41.5938 17.5938
Q42.1875 21.4844 42.1875 26.4688" id="LiberationSans-70"/>
      <path d="
M27.0469 0.390625
Q25.0469 -0.140625 22.9688 -0.453125
Q20.9062 -0.78125 18.1719 -0.78125
Q7.625 -0.78125 7.625 11.1875
L7.625 46.4375
L1.51562 46.4375
L1.51562 52.8281
L7.95312 52.8281
L10.5469 64.6562
L16.4062 64.6562
L16.4062 52.8281
L26.1719 52.8281
L26.1719 46.4375
L16.4062 46.4375
L16.4062 13.0938
Q16.4062 9.28125 17.6406 7.73438
Q18.8906 6.20312 21.9688 6.20312
Q23.25 6.20312 24.4375 6.39062
Q25.6406 6.59375 27.0469 6.89062
z
" id="LiberationSans-74"/>
     </defs>
     <g style="fill:#262626;" transform="translate(164.0 431.45)scale(0.2 -0.2)">
      <use xlink:href="#LiberationSans-48"/>
      <use x="72.216796875" xlink:href="#LiberationSans-20"/>
      <use x="100.0" xlink:href="#LiberationSans-62"/>
      <use x="155.615234375" xlink:href="#LiberationSans-6f"/>
      <use x="211.23046875" xlink:href="#LiberationSans-6e"/>
      <use x="266.845703125" xlink:href="#LiberationSans-64"/>
      <use x="322.4609375" xlink:href="#LiberationSans-73"/>
      <use x="372.4609375" xlink:href="#LiberationSans-20"/>
      <use x="400.244140625" xlink:href="#LiberationSans-6e"/>
      <use x="455.859375" xlink:href="#LiberationSans-6f"/>
      <use x="511.474609375" xlink:href="#LiberationSans-74"/>
      <use x="539.2578125" xlink:href="#LiberationSans-20"/>
      <use x="567.041015625" xlink:href="#LiberationSans-70"/>
      <use x="622.65625" xlink:href="#LiberationSans-65"/>
      <use x="678.271484375" xlink:href="#LiberationSans-72"/>
      <use x="711.572265625" xlink:href="#LiberationSans-74"/>
     </g>
    </g>
   </g>
  </g>
 </g>
 <defs>
  <clipPath id="pac498d0293">
   <rect height="403.2" width="558.0" x="90.0" y="50.4"/>
  </clipPath>
 </defs>
</svg>
